<svg version="1.1" id="Layer_1" xmlns="http://www.w3.org/2000/svg" xmlns:xlink="http://www.w3.org/1999/xlink" x="0px" y="0px" viewBox="0 0 500 500" style="width: 144px;" xml:space="preserve" data-imageid="career-2-41" imageName="Career 2" class="illustrations_image">
<style type="text/css">
	.st0_career-2-41{fill:#231F20;}
	.st1_career-2-41{fill:#D1D3D4;}
	.st2_career-2-41{fill:#FFFFFF;}
	.st3_career-2-41{fill:#68E1FD;}
</style>
<g id="Ladder_career-2-41">
	<path class="st0_career-2-41" d="M192.2,401.3c-1.3,0-2.3-1-2.3-2.3c0-0.2,0-0.5,0.1-0.7L293.9,89.2c0.4-1.2,1.7-1.8,2.9-1.4&#10;&#9;&#9;c1.2,0.4,1.8,1.7,1.4,2.9L194.4,399.7C194.1,400.6,193.2,401.3,192.2,401.3z"/>
	<path class="st0_career-2-41" d="M259.2,401.7c-0.2,0-0.5,0-0.7-0.1c-1.2-0.4-1.9-1.7-1.5-2.9L354.3,109c0.4-1.2,1.7-1.8,2.9-1.4&#10;&#9;&#9;c1.2,0.4,1.8,1.7,1.4,2.9l-97.3,289.6C261.1,401,260.2,401.7,259.2,401.7z"/>
	<path class="st0_career-2-41" d="M343.3,147.4c-0.2,0-0.5,0-0.7-0.1l-58.9-19.9c-1.2-0.4-1.8-1.7-1.4-2.9c0.4-1.2,1.7-1.8,2.9-1.4l58.9,19.9&#10;&#9;&#9;c1.2,0.4,1.8,1.7,1.4,2.9C345.2,146.8,344.3,147.5,343.3,147.4L343.3,147.4z"/>
	<path class="st0_career-2-41" d="M332.2,180.4c-0.3,0-0.5,0-0.7-0.1l-58.9-19.9c-1.2-0.5-1.7-1.8-1.3-3c0.4-1.1,1.6-1.7,2.7-1.4l58.9,19.9&#10;&#9;&#9;c1.2,0.4,1.9,1.7,1.4,2.9C334.1,179.7,333.3,180.4,332.2,180.4L332.2,180.4z"/>
	<path class="st0_career-2-41" d="M321.1,213.3c-0.2,0-0.5,0-0.7-0.1l-58.9-19.9c-1.2-0.3-2-1.5-1.7-2.8c0.3-1.2,1.5-2,2.8-1.7&#10;&#9;&#9;c0.1,0,0.3,0.1,0.4,0.1l58.9,19.9c1.2,0.4,1.8,1.7,1.4,2.9C323,212.7,322.1,213.3,321.1,213.3L321.1,213.3z"/>
	<path class="st0_career-2-41" d="M310.1,246.2c-0.3,0-0.5,0-0.7-0.1l-58.9-19.9c-1.2-0.5-1.7-1.8-1.3-3c0.4-1.1,1.6-1.7,2.7-1.4l58.9,19.9&#10;&#9;&#9;c1.2,0.4,1.8,1.7,1.4,2.9C311.9,245.6,311,246.2,310.1,246.2z"/>
	<path class="st0_career-2-41" d="M299,279.1c-0.2,0-0.5,0-0.7-0.1l-58.9-19.9c-1.2-0.5-1.7-1.8-1.3-3c0.4-1.1,1.6-1.7,2.7-1.4l58.9,19.9&#10;&#9;&#9;c1.2,0.4,1.8,1.7,1.4,2.9C300.8,278.5,300,279.1,299,279.1L299,279.1z"/>
	<path class="st0_career-2-41" d="M287.9,312c-0.3,0-0.5,0-0.7-0.1L228.2,292c-1.2-0.3-1.9-1.6-1.6-2.8s1.6-1.9,2.8-1.6c0.1,0,0.2,0.1,0.3,0.1&#10;&#9;&#9;l58.9,19.9c1.2,0.4,1.9,1.7,1.4,2.9C289.7,311.4,288.9,312,287.9,312z"/>
	<path class="st0_career-2-41" d="M276.8,345c-0.2,0-0.5,0-0.7-0.1L217.1,325c-1.2-0.3-1.9-1.6-1.6-2.8s1.6-1.9,2.8-1.6c0.1,0,0.2,0.1,0.3,0.1&#10;&#9;&#9;l58.9,19.9c1.2,0.4,1.8,1.7,1.4,2.9C278.6,344.3,277.7,345,276.8,345L276.8,345z"/>
	<path class="st0_career-2-41" d="M265.7,377.9c-0.3,0-0.5,0-0.7-0.1L206,357.9c-1.2-0.5-1.7-1.8-1.3-3c0.4-1.1,1.6-1.7,2.7-1.4l58.9,19.9&#10;&#9;&#9;c1.2,0.4,1.8,1.7,1.4,2.9C267.5,377.2,266.6,377.9,265.7,377.9L265.7,377.9z"/>
</g>
<g id="Upward_Arrow_career-2-41">
	<path class="st1_career-2-41" d="M27.3,384.4c-0.1,0-0.2,0-0.2,0c-0.4-0.1-0.6-0.5-0.5-0.9c0,0,0,0,0-0.1l72-217.9l-15.8-5.1&#10;&#9;&#9;c-0.3-0.1-0.5-0.3-0.5-0.6c0-0.3,0.1-0.6,0.3-0.7l56.4-45.5c0.2-0.2,0.5-0.2,0.7-0.1c0.2,0.1,0.4,0.3,0.5,0.5l18.9,70&#10;&#9;&#9;c0.1,0.4-0.1,0.8-0.5,0.9c-0.2,0-0.3,0-0.5,0l-15.8-5.1L77.4,375.8c-0.1,0.4-0.6,0.6-1,0.5c0,0,0,0,0,0c-0.4-0.1-0.6-0.6-0.5-1&#10;&#9;&#9;c0,0,0,0,0,0L141,178.5c0.1-0.4,0.5-0.6,0.9-0.5c0,0,0,0,0.1,0l15.2,4.9L139,115.4l-54.4,43.9l15.2,4.9c0.4,0.1,0.6,0.6,0.5,1&#10;&#9;&#9;c0,0,0,0,0,0L28,383.8C27.9,384.1,27.6,384.4,27.3,384.4z"/>
	<path class="st1_career-2-41" d="M313.1,405.1c-0.1,0-0.2,0-0.2,0c-0.4-0.1-0.6-0.5-0.5-0.9c0,0,0,0,0-0.1l69.3-213.5l-14.9-4.8&#10;&#9;&#9;c-0.3-0.1-0.5-0.3-0.5-0.6c-0.1-0.3,0.1-0.6,0.3-0.7l53.3-43c0.3-0.3,0.8-0.2,1.1,0.1c0.1,0.1,0.1,0.2,0.1,0.3l17.9,66.1&#10;&#9;&#9;c0.1,0.3,0,0.6-0.2,0.8c-0.2,0.2-0.5,0.3-0.8,0.2l-14.9-4.8l-43.7,134.6c-0.1,0.4-0.6,0.6-1,0.5c-0.4-0.1-0.6-0.6-0.5-1l43.9-135.3&#10;&#9;&#9;c0.1-0.2,0.2-0.4,0.4-0.4c0.2-0.1,0.4-0.1,0.6-0.1l14.3,4.6L420,143.3l-51.3,41.4l14.3,4.6c0.2,0.1,0.4,0.2,0.5,0.4&#10;&#9;&#9;c0.1,0.2,0.1,0.4,0,0.6l-69.6,214.2C313.8,404.9,313.5,405.1,313.1,405.1z"/>
	<path class="st1_career-2-41" d="M394.4,412.4c-0.1,0-0.2,0-0.2,0c-0.4-0.1-0.6-0.6-0.5-1c0,0,0,0,0,0L427,304.8l-11.9-3.9&#10;&#9;&#9;c-0.3-0.1-0.5-0.3-0.5-0.6c0-0.3,0.1-0.6,0.3-0.7l43-34.6c0.2-0.2,0.5-0.2,0.7-0.1c0.2,0.1,0.4,0.3,0.5,0.5l14.4,53.2&#10;&#9;&#9;c0.1,0.3,0,0.6-0.2,0.8c-0.2,0.2-0.5,0.3-0.8,0.2l-11.8-3.8l-26.2,84.6c-0.1,0.4-0.6,0.6-1,0.5c0,0,0,0,0,0c-0.4-0.1-0.6-0.6-0.5-1&#10;&#9;&#9;c0,0,0,0,0,0l26.4-85.4c0.1-0.4,0.6-0.6,1-0.5c0,0,0,0,0,0l11.2,3.6l-13.7-50.8l-40.9,33l11.2,3.6c0.4,0.1,0.6,0.5,0.5,0.9&#10;&#9;&#9;c0,0,0,0,0,0l-33.6,107.4C395,412.2,394.7,412.4,394.4,412.4z"/>
</g>
<g id="Character_career-2-41">
	<path class="st2_career-2-41" d="M223.1,94.9c-7.6,1.3-14.4,5.9-14.2,14.4c0.1,5.2,2.9,10,6.8,13.4c5.7,5,14.1,6.9,21.1,4.2&#10;&#9;&#9;c6.1-2.5,10.3-8.2,10.8-14.8c0.3-5.1-2-13.5-7.4-15.3c-2-0.7-4.6,0.9-4.6,0.9C234.7,94.7,226.2,94.4,223.1,94.9z"/>
	<path class="st0_career-2-41" d="M230,128.8c-5.5,0-10.7-2-14.8-5.6c-4.2-3.5-6.7-8.5-7-13.9c-0.1-7.8,5.4-13.4,14.8-15.1l0,0&#10;&#9;&#9;c2.6-0.5,10.8-0.5,13,2.5c1.4-0.8,3-1,4.5-0.6c5.8,2,8.1,10.8,7.8,16c-0.5,6.9-4.9,12.8-11.3,15.4&#10;&#9;&#9;C234.8,128.4,232.4,128.8,230,128.8z M226.2,95.4c-1,0-2,0.1-3,0.2l0,0c-3.2,0.6-13.8,3.2-13.6,13.7c0.3,5,2.6,9.7,6.5,12.9&#10;&#9;&#9;c5.7,5,13.9,6.6,20.4,4.1c5.9-2.4,9.9-7.9,10.4-14.2c0.3-5-2-12.9-6.9-14.6c-1.4-0.5-3.4,0.4-4,0.8c-0.3,0.2-0.8,0.1-1-0.3&#10;&#9;&#9;c0,0,0-0.1,0-0.1C234.4,96.2,229.9,95.4,226.2,95.4L226.2,95.4z M223.1,94.9L223.1,94.9z"/>
	<path class="st2_career-2-41" d="M264.5,279.1l-7.1,17.6c0,0,20.7,8.1,26.3,9.3s5.8-1.4-1.8-8.3c-5.9-5.4-8.1-6.2-8.1-6.2l3.8-6.8L264.5,279.1z&#10;&#9;&#9;"/>
	<path class="st0_career-2-41" d="M286,306.9c-0.8,0-1.6-0.1-2.4-0.3c-5.6-1.2-25.6-9-26.4-9.3c-0.2-0.1-0.3-0.2-0.4-0.4c-0.1-0.2-0.1-0.4,0-0.5&#10;&#9;&#9;l7.1-17.5c0.1-0.2,0.2-0.3,0.4-0.4c0.2-0.1,0.4-0.1,0.5,0L278,284c0.2,0.1,0.3,0.2,0.4,0.4c0.1,0.2,0.1,0.4,0,0.6l-3.4,6.1&#10;&#9;&#9;c2.8,1.7,5.3,3.7,7.6,6c6.2,5.8,6.4,7.7,5.9,8.8C287.9,306.7,286.9,307.1,286,306.9z M258.4,296.2c3.6,1.4,20.6,8,25.6,9&#10;&#9;&#9;c2.3,0.5,3.1,0.2,3.2,0s0.6-1.4-5.6-7.1c-5.6-5.2-7.9-6-7.9-6c-0.2-0.1-0.4-0.2-0.4-0.4c-0.1-0.2-0.1-0.4,0-0.6l3.4-6.1l-11.8-5&#10;&#9;&#9;L258.4,296.2z"/>
	<path class="st2_career-2-41" d="M223.6,339.1c0,0-0.5,6.1,0.8,10.5s2.5,10.3,2,14.1s-4.5,8.3-8.5,6.4s-5.5-13.3-5.4-16.4s0.5-11.1-0.3-15.3&#10;&#9;&#9;L223.6,339.1z"/>
	<path class="st0_career-2-41" d="M219.9,371.1c-0.8,0-1.5-0.2-2.2-0.5c-4.7-2.2-5.9-14.6-5.8-17v-0.4c0.1-3.2,0.5-10.9-0.3-14.8&#10;&#9;&#9;c0-0.2,0-0.4,0.2-0.6c0.1-0.2,0.3-0.2,0.6-0.2l11.4,0.7c0.2,0,0.4,0.1,0.5,0.2c0.1,0.1,0.2,0.3,0.2,0.5c0,0.1-0.5,6,0.8,10.2&#10;&#9;&#9;c0.6,2.2,2.7,9.6,2.1,14.4c-0.4,2.8-2.1,5.3-4.5,6.7C221.7,370.9,220.8,371.1,219.9,371.1z M213.1,339.1c0.6,4.2,0.4,11.2,0.2,14.2&#10;&#9;&#9;v0.4c-0.1,3.2,1.5,14.1,5,15.7c1.2,0.5,2.5,0.4,3.7-0.2c2-1.2,3.4-3.3,3.8-5.7c0.6-4.5-1.4-11.7-2-13.8c-0.8-3.3-1.1-6.6-0.9-10&#10;&#9;&#9;L213.1,339.1z"/>
	<path class="st0_career-2-41" d="M199.2,200c2.1-1.3,48.9,8.9,48.9,8.9s56.7,10.3,55.2,24.5s-24.6,54-24.6,54l-17.5-4.8l15.4-38.5l-43.2-7.5&#10;&#9;&#9;c0,0-10.2,81.1-6.9,106.3l-17,2.6L199.2,200z"/>
	<path class="st0_career-2-41" d="M209.4,346.3c-0.2,0-0.3-0.1-0.4-0.1c-0.1-0.1-0.2-0.3-0.2-0.5L198.5,200c0-0.2,0.1-0.5,0.3-0.6&#10;&#9;&#9;c2.1-1.4,38.3,6.4,49.4,8.9c2.3,0.4,57.3,10.5,55.7,25.2c-1.5,14.2-23.8,52.7-24.7,54.3c-0.2,0.3-0.5,0.4-0.8,0.3l-17.4-4.8&#10;&#9;&#9;c-0.2-0.1-0.3-0.2-0.4-0.4c-0.1-0.2-0.1-0.4,0-0.5l15-37.7l-41.7-7.2c-1,8-9.9,81.8-6.8,105.4c0,0.4-0.2,0.7-0.6,0.8l-17,2.6&#10;&#9;&#9;L209.4,346.3z M199.9,200.5L210,344.8l15.6-2.4c-3-25.7,6.9-105,7-105.8c0-0.2,0.1-0.3,0.3-0.4c0.1-0.1,0.3-0.2,0.5-0.1l43.2,7.5&#10;&#9;&#9;c0.2,0,0.4,0.2,0.5,0.3c0.1,0.2,0.1,0.4,0,0.6L262,282.2l16.2,4.4c2.5-4.4,22.9-40.2,24.3-53.3c1.2-11.1-39-20.9-54.7-23.7&#10;&#9;&#9;C231.1,205.9,204,200.4,199.9,200.5L199.9,200.5z"/>
	<path class="st0_career-2-41" d="M231,140.6c0,0,14.6,8.2,17.4,22.4s-0.4,45.9-0.4,45.9l-36.1-1.5c0,0,3.5-40,0-51.3s-2.9-8.4,0.5-9.5&#10;&#9;&#9;S224.6,133.6,231,140.6z"/>
	<path class="st0_career-2-41" d="M248,209.6L248,209.6l-36.1-1.5c-0.2,0-0.4-0.1-0.5-0.2c-0.1-0.1-0.2-0.3-0.2-0.5c0-0.4,3.5-40,0-51l-0.6-2&#10;&#9;&#9;c-1.7-5.5-2.1-6.6-1.6-7.4c0.4-0.5,1-0.7,1.6-0.7c0.5,0,1.1-0.2,1.6-0.3c1.3-0.7,2.5-1.6,3.6-2.6c4.2-3.5,10.5-8.7,15.5-3.3&#10;&#9;&#9;c1.4,0.8,14.9,8.9,17.7,22.8c2.8,14.1-0.2,44.8-0.3,46.1C248.7,209.3,248.4,209.6,248,209.6z M212.6,206.8l34.8,1.4&#10;&#9;&#9;c0.4-4.5,2.9-32.3,0.3-45.1c-2.7-13.7-17-21.8-17.1-21.9c-0.1,0-0.1-0.1-0.2-0.1c-3.9-4.3-8.5-1-13.7,3.3c-1.2,1.2-2.6,2.1-4.1,2.8&#10;&#9;&#9;c-0.6,0.2-1.2,0.3-1.9,0.4c-0.2,0-0.4,0-0.6,0.1c-0.1,0.4,0.6,2.6,1.8,6.2l0.6,1.9C215.9,166.5,213.1,201.2,212.6,206.8&#10;&#9;&#9;L212.6,206.8z"/>
	<path class="st3_career-2-41 targetColor" d="M230.5,135.9c0,0,2.9,0,5.4,5.6c2.4,4.6,6.8,76.1,6.8,76.1l29.1-8.7c0,0-15.9-34.2-18.3-46.6&#10;&#9;&#9;C251.3,149.9,242.5,139.8,230.5,135.9z" style="fill: rgb(218, 232, 255);"/>
	<path class="st2_career-2-41" d="M236.5,134.9l0.1,11c0,0-1.1,6.2-7.8,4.3c-4-1.2-7.3-4.1-8.9-7.9c0,0-0.6-23.3-0.7-30.3&#10;&#9;&#9;c8.2-0.1,17.1-5.4,17.1-5.4s2.8,4.2,4,5.6c1,1,1.8,2.1,2.5,3.3c1.1,2.1,1.1,4.8,1,7.1c0,2.8-0.2,5.6-0.8,8.4&#10;&#9;&#9;C241.9,136.2,236.5,134.9,236.5,134.9z"/>
	<path class="st0_career-2-41" d="M231.1,151.3c-0.9,0-1.7-0.1-2.6-0.4c-4.2-1.2-7.7-4.3-9.4-8.4c0-0.1,0-0.1,0-0.2c0,0-0.6-23.3-0.7-30.3&#10;&#9;&#9;c0-0.2,0.1-0.4,0.2-0.5c0.1-0.1,0.3-0.2,0.5-0.2c7.9-0.1,16.7-5.2,16.8-5.3c0.3-0.2,0.7-0.1,0.9,0.2c0,0,2.8,4.2,4,5.5&#10;&#9;&#9;c1,1,1.9,2.2,2.6,3.5c1.2,2.3,1.2,5.2,1.1,7.5c0,2.8-0.3,5.7-0.9,8.4c-0.2,1.5-1.1,2.9-2.4,3.7c-1.2,0.7-2.7,1-4.1,0.9l0.1,10.2&#10;&#9;&#9;c-0.3,1.8-1.4,3.4-2.9,4.5C233.4,151.1,232.3,151.4,231.1,151.3z M220.5,142.2c1.6,3.6,4.7,6.3,8.4,7.4c2.5,1.1,5.5,0,6.6-2.5&#10;&#9;&#9;c0.2-0.4,0.3-0.8,0.4-1.3l-0.1-10.9c0-0.2,0.1-0.4,0.3-0.6c0.2-0.1,0.4-0.2,0.6-0.1c1.3,0.3,2.7,0.1,3.9-0.6c1-0.7,1.6-1.7,1.8-2.8&#10;&#9;&#9;c0.5-2.7,0.8-5.4,0.8-8.2c0-2.2,0.1-4.8-1-6.8c-0.7-1.2-1.5-2.2-2.4-3.2c-1-1.1-2.9-3.9-3.7-5.1c-2.1,1.1-9.3,4.8-16.2,5.1&#10;&#9;&#9;C219.9,120.1,220.4,140.4,220.5,142.2z"/>
	<path class="st0_career-2-41" d="M236.4,140.4c0,0-4.5,0.2-7.4-2.8c-1.7-1.5-2.6-3.7-2.5-6c0,0,4.9,3.3,9.9,3.4L236.4,140.4z"/>
	<path class="st0_career-2-41" d="M236.2,141c-2.8,0-5.6-1.1-7.7-3c-1.8-1.7-2.8-4.1-2.6-6.6c0-0.2,0.2-0.4,0.4-0.5c0.2-0.1,0.5-0.1,0.6,0.1&#10;&#9;&#9;c0,0,4.8,3.1,9.5,3.2c0.4,0,0.7,0.3,0.7,0.7l-0.1,5.4c0,0.4-0.3,0.6-0.6,0.7H236.2z M236.4,140.3L236.4,140.3z M227.3,132.8&#10;&#9;&#9;c0.3,1.6,1,3.2,2.2,4.3c1.7,1.6,3.9,2.5,6.2,2.6v-4.1C232.8,135.2,229.9,134.3,227.3,132.8L227.3,132.8z"/>
	<path class="st2_career-2-41" d="M232.1,117.3c0,0,3.6,5.3,2.7,6.2s-3.2,0.3-3.2,0.3"/>
	<path class="st0_career-2-41" d="M233.2,124.7c-0.6,0-1.2-0.1-1.7-0.2c-0.4-0.1-0.6-0.5-0.5-0.8c0.1-0.4,0.5-0.6,0.8-0.5l0,0&#10;&#9;&#9;c0.8,0.2,2.1,0.3,2.5-0.1c0.1-0.5-1.2-3-2.8-5.4c-0.2-0.3-0.1-0.7,0.2-0.9c0.3-0.2,0.7-0.1,0.9,0.2c2.6,3.8,3.4,6.2,2.6,7.1&#10;&#9;&#9;C234.8,124.5,234,124.8,233.2,124.7z"/>
	
		<ellipse transform="matrix(0.9992 -3.925982e-02 3.925982e-02 0.9992 -4.358 9.3866)" class="st0_career-2-41" cx="236.8" cy="115.7" rx="0.6" ry="1.2"/>
	
		<ellipse transform="matrix(2.966619e-02 -0.9996 0.9996 2.966619e-02 104.5492 338.3604)" class="st0_career-2-41" cx="226.6" cy="115.3" rx="1.1" ry="0.6"/>
	<path class="st2_career-2-41" d="M221.3,119.2c-1.2-1.7-3-4.7-5.4-3.7c-0.6,0.3-1.2,0.7-1.6,1.2c-2,2.3-1.7,5.4-0.4,8c1.1,2.2,4.6,5.5,7,2.8"/>
	<path class="st0_career-2-41" d="M218.8,129.2h-0.4c-2.3-0.3-4.4-2.7-5.1-4.2c-1.6-3.2-1.5-6.5,0.4-8.7c0.5-0.7,1.2-1.1,2-1.4&#10;&#9;&#9;c2.8-1,4.8,1.8,6,3.6l0.3,0.4c0.2,0.3,0.2,0.7-0.1,1c0,0,0,0,0,0c-0.3,0.2-0.7,0.2-1-0.1c0,0,0,0,0,0l-0.3-0.4&#10;&#9;&#9;c-1.4-2-2.7-3.7-4.4-3.1c-0.5,0.2-1,0.6-1.4,1c-1.5,1.8-1.6,4.5-0.3,7.2c0.8,1.5,2.5,3.2,4,3.4c0.7,0.1,1.4-0.2,1.9-0.8&#10;&#9;&#9;c0.2-0.3,0.7-0.3,1-0.1c0,0,0,0,0,0c0.3,0.2,0.3,0.7,0.1,1c0,0,0,0,0,0C220.8,128.8,219.8,129.2,218.8,129.2z"/>
	<path class="st3_career-2-41 targetColor" d="M218.9,138.8c0,0,0.9,25.8,0.9,41.3c0,17.8,3.5,41.7,3.5,41.7l-29,8c-0.4-11.8,0-23.6,1.1-35.4&#10;&#9;&#9;c1.2-13.1,3.2-31.5,2.7-40.8S218.9,138.8,218.9,138.8z" style="fill: rgb(218, 232, 255);"/>
	<path class="st0_career-2-41" d="M232.6,129.9c-0.2,0-0.4,0-0.7,0c-3.6-0.4-6.2-4.1-6.3-4.3c-0.2-0.3-0.2-0.7,0.1-1c0.3-0.2,0.7-0.2,1,0.1&#10;&#9;&#9;c0,0,0,0.1,0.1,0.1c0,0,2.3,3.4,5.3,3.7c1.6,0.1,3.2-0.5,4.3-1.7c0.3-0.3,0.7-0.3,1,0c0,0,0,0,0,0c0.3,0.3,0.3,0.7,0,1c0,0,0,0,0,0&#10;&#9;&#9;C236.1,129.2,234.4,129.9,232.6,129.9z"/>
	<polygon class="st2_career-2-41" points="230.2,152.6 226.3,157.8 229.3,159.1 224.9,207 231.2,212.5 236.2,206.6 231.9,158.8 234.7,156.6 &#9;"/>
	<path class="st0_career-2-41" d="M231.2,213.2c-0.2,0-0.3-0.1-0.4-0.2l-6.3-5.4c-0.2-0.1-0.3-0.4-0.2-0.6l4.3-47.5l-2.5-1.1&#10;&#9;&#9;c-0.2-0.1-0.3-0.3-0.4-0.5c-0.1-0.2,0-0.4,0.1-0.6l4-5.2c0.1-0.2,0.3-0.2,0.5-0.3c0.2,0,0.4,0.1,0.5,0.2l4.4,4&#10;&#9;&#9;c0.1,0.1,0.2,0.3,0.2,0.5c0,0.2-0.1,0.4-0.3,0.5l-2.5,1.9l4.2,47.4c0,0.2,0,0.4-0.2,0.5l-5,5.9C231.6,213,231.5,213.1,231.2,213.2&#10;&#9;&#9;L231.2,213.2z M225.6,206.8l5.5,4.7l4.3-5.1l-4.2-47.5c0-0.2,0.1-0.5,0.3-0.6l2.1-1.6l-3.3-3l-3,3.9l2.2,0.9&#10;&#9;&#9;c0.3,0.1,0.4,0.4,0.4,0.7L225.6,206.8z"/>
	<path class="st2_career-2-41" d="M155.1,257.6l51-9.2c2.9-0.5,5.6,1.4,6.1,4.3l5.3,29.4c0.5,2.9-1.4,5.6-4.3,6.1l-51,9.2&#10;&#9;&#9;c-2.9,0.5-5.6-1.4-6.1-4.3l-5.3-29.4C150.3,260.9,152.2,258.1,155.1,257.6z"/>
	<path class="st0_career-2-41" d="M161.4,298.3c-3,0-5.5-2.1-6-5l-5.3-29.4c-0.3-1.6,0.1-3.2,1-4.5c0.9-1.3,2.3-2.2,3.9-2.5l51-9.2&#10;&#9;&#9;c3.3-0.6,6.4,1.6,7,4.9l5.4,29.5c0.6,3.3-1.6,6.4-4.9,7l0,0l-51,9.2C162.1,298.3,161.7,298.3,161.4,298.3z M207.1,249.1&#10;&#9;&#9;c-0.3,0-0.5,0-0.8,0.1l-51,9.2c-2.5,0.5-4.1,2.8-3.6,5.3l5.3,29.4c0.2,1.2,0.9,2.2,1.8,2.9c1,0.7,2.2,1,3.4,0.7l51-9.2&#10;&#9;&#9;c2.5-0.5,4.1-2.8,3.6-5.3l-5.3-29.4C211.1,250.7,209.3,249.1,207.1,249.1L207.1,249.1z M213.4,288.2L213.4,288.2z"/>
	<path class="st1_career-2-41" d="M158.3,268.9c-0.4,0-0.7-0.3-0.8-0.6c-0.1-0.4,0.2-0.8,0.6-0.9c0,0,0,0,0,0l48.6-8.8c0.4-0.1,0.8,0.1,0.9,0.5&#10;&#9;&#9;c0.1,0.4-0.1,0.8-0.5,0.9c0,0-0.1,0-0.1,0l-48.6,8.8L158.3,268.9z"/>
	<path class="st0_career-2-41" d="M169.3,255.8c-0.4,0-0.7-0.3-0.8-0.6l-0.8-4.3c-0.5-2.6,1.3-5.1,3.8-5.5l14.8-2.7c1.2-0.2,2.5,0.1,3.6,0.8&#10;&#9;&#9;c1.1,0.7,1.8,1.8,2,3.1l0.8,4.4c0,0.2,0,0.4-0.1,0.6c-0.1,0.2-0.3,0.3-0.5,0.3l-22.7,4.1L169.3,255.8z M187.3,244.1&#10;&#9;&#9;c-0.2,0-0.4,0-0.6,0l-14.8,2.7c-1.8,0.3-2.9,2-2.6,3.7c0,0,0,0,0,0l0.6,3.6l21.2-3.8l-0.6-3.6c-0.2-0.8-0.6-1.6-1.3-2.1&#10;&#9;&#9;C188.6,244.2,187.9,244.1,187.3,244.1L187.3,244.1z"/>
	<path class="st2_career-2-41" d="M183,227.2c0,0,0.7,4.2,1.5,7.2c1,2.7,2.2,5.2,3.7,7.6c-1.1-0.3-2.2,0.2-3.2,0c0.6,1,1.1,2.2,1.3,3.4&#10;&#9;&#9;c0.2,1.2-0.1,2.5-1,3.3c-0.5,0.4-1.1,0.7-1.7,0.8c-2.2,0.7-6,1.7-7.9-0.2c-0.7-0.8-1.1-1.8-1.2-2.8c-0.9-4.2-0.6-16.9-0.6-19"/>
	<path class="st0_career-2-41" d="M178.9,251.2c-1.4,0.1-2.7-0.4-3.8-1.3c-0.8-0.9-1.3-2-1.5-3.2c-1-4.7-0.6-19.1-0.6-19.2&#10;&#9;&#9;c0.1-0.4,0.5-0.7,0.9-0.7c0.4,0.1,0.6,0.3,0.7,0.7c-0.1,3.7-0.2,15.1,0.6,18.8c0.1,0.9,0.5,1.7,1,2.4c1.5,1.5,4.6,0.8,7.1,0&#10;&#9;&#9;c0.5-0.1,1-0.4,1.5-0.7c0.7-0.7,1-1.7,0.8-2.6c-0.2-1.1-0.7-2.2-1.2-3.1c-0.2-0.4-0.1-0.8,0.3-1c0.2-0.1,0.3-0.1,0.5-0.1&#10;&#9;&#9;c0.4,0,0.8,0,1.3-0.1l0.4-0.1c-1.3-2.1-2.3-4.3-3.1-6.6c-0.8-3-1.5-7.1-1.6-7.3c-0.1-0.4,0.2-0.8,0.6-0.9c0.4-0.1,0.8,0.2,0.9,0.6&#10;&#9;&#9;c0,0,0,0,0,0c0,0,0.7,4.2,1.5,7.1c1,2.6,2.2,5.1,3.6,7.4c0.2,0.3,0.2,0.6,0,0.9c-0.2,0.3-0.5,0.4-0.8,0.3c-0.5-0.1-1-0.1-1.4,0&#10;&#9;&#9;h-0.3c0.4,0.8,0.7,1.6,0.8,2.5c0.3,1.5-0.2,3-1.3,4c-0.6,0.5-1.3,0.8-2,1C182.2,250.8,180.6,251.1,178.9,251.2z"/>
	<path class="st3_career-2-41 targetColor" d="M200.1,148.4c0,0-22.8,25.3-31.5,39.2c-2.5,4,2.1,52.8,2.1,52.8l18.5-6.2c0,0-2.6-33.9-1.3-37.9&#10;&#9;&#9;s27.3-26.2,27.3-26.2L200.1,148.4z" style="fill: rgb(218, 232, 255);"/>
	<path class="st2_career-2-41" d="M197.7,168.1c-0.3,0.2-3.5,48.7-3.5,48.7"/>
	<path class="st0_career-2-41" d="M194.2,217.5L194.2,217.5c-0.4,0-0.7-0.4-0.7-0.7c3.2-48.9,3.4-49,3.8-49.2c0.3-0.2,0.7-0.1,1,0.2&#10;&#9;&#9;c0,0,0,0,0,0.1c0.1,0.2,0.1,0.4,0,0.6c-0.3,1.7-2.2,29.8-3.4,48.5C194.9,217.2,194.6,217.5,194.2,217.5z"/>
	<path class="st2_career-2-41" d="M299,141.6c0,0,8.8-14.4,10.3-14.4s9.6,3,9.8,4.3c0,1-0.1,2-0.5,3c0,0-1.6-1.3-2.1-0.8s-2.4,3.7-1.7,4.2&#10;&#9;&#9;c0.7,0.3,1.4,0.5,2.2,0.6c-0.8,1-1.9,1.7-3.1,2.1c-2,0.6-7.6,6.5-7.6,6.5L299,141.6z"/>
	<path class="st0_career-2-41" d="M306.3,147.8c-0.2,0-0.3,0-0.4-0.1l-7.3-5.5c-0.3-0.2-0.4-0.6-0.2-0.9c5.9-9.8,9.6-14.7,11-14.7l0,0&#10;&#9;&#9;c1.4,0,10.2,2.9,10.5,5c0.1,1.1-0.1,2.2-0.6,3.3c-0.1,0.2-0.3,0.4-0.5,0.4c-0.2,0.1-0.4,0-0.6-0.1c-0.4-0.3-0.8-0.6-1.2-0.7&#10;&#9;&#9;c-0.7,0.9-1.2,2-1.6,3.1c0.5,0.2,1.1,0.3,1.6,0.4c0.3,0,0.5,0.2,0.6,0.4c0.1,0.2,0.1,0.5-0.1,0.7c-0.9,1.1-2.1,1.9-3.4,2.3&#10;&#9;&#9;c-1.4,0.4-5.2,4.1-7.3,6.3C306.7,147.7,306.5,147.8,306.3,147.8z M299.9,141.4l6.3,4.7c1.4-1.4,5.6-5.6,7.5-6.2&#10;&#9;&#9;c0.7-0.2,1.3-0.5,1.8-0.9c-0.4-0.1-0.8-0.3-1.1-0.5c-0.3-0.2-0.4-0.5-0.5-0.8c-0.1-1.3,1.6-4,2.1-4.5s1.5-0.3,2.2,0.2&#10;&#9;&#9;c0.2-0.6,0.2-1.2,0.2-1.8c-0.5-0.9-7.5-3.7-9.1-3.7C308.4,128.3,303.9,135,299.9,141.4z"/>
	<path class="st3_career-2-41 targetColor" d="M239.4,140.4c0,0,35.4,17.1,39.9,15.6s19.4-17.6,19.4-17.6l12.1,5.8c0,0-17,32.6-27.6,30.7&#10;&#9;&#9;s-39.1-15.5-39.1-15.5L239.4,140.4z" style="fill: rgb(218, 232, 255);"/>
	<path class="st2_career-2-41" d="M247.6,161.2c0,0,20.8,8.6,31.5,12.5"/>
	<path class="st0_career-2-41" d="M279,174.4c-0.1,0-0.2,0-0.2,0c-10.5-3.9-31.3-12.4-31.5-12.5c-0.4-0.1-0.5-0.5-0.4-0.9c0,0,0,0,0,0&#10;&#9;&#9;c0.2-0.4,0.6-0.5,0.9-0.4c0.2,0.1,20.9,8.7,31.4,12.5c0.4,0.1,0.5,0.6,0.4,0.9C279.6,174.2,279.3,174.4,279,174.4L279,174.4z"/>
</g>
</svg>