<svg xmlns="http://www.w3.org/2000/svg" viewBox="0 0 1364 960"><path fill="#e3ffe7" d="M1182.385 536.61c0 14.203-1.004 28.222-2.971 42.024a265.74 265.74 0 0 1-1.363 8.654 300.366 300.366 0 0 1-6.608 29.373 140.063 140.063 0 0 1-1.167 4.094c-.133.478-.276.966-.42 1.444a302.576 302.576 0 0 1-5.04 15.43 317.265 317.265 0 0 1-10.747 26.387 324.54 324.54 0 0 1-9.23 18.504 337.677 337.677 0 0 1-7.765 13.671 350.942 350.942 0 0 1-18.972 28.461c-.277.38-.553.771-.84 1.151a383.082 383.082 0 0 1-20.571 25.334 361.993 361.993 0 0 1-9.046 9.903c-13.963 14.79-29.268 28.776-45.792 41.861-.901.717-1.793 1.422-2.705 2.128a464.21 464.21 0 0 1-21.319 15.691 431.963 431.963 0 0 1-8.718 5.918c-31.839 21.077-67.182 39.135-105.281 53.588a581.856 581.856 0 0 1-6.434 2.4c-32.29 11.825-66.496 21.055-102.156 27.375a636.852 636.852 0 0 1-35.302 5.223h-.01c-.789.109-1.588.195-2.387.293-3.555.413-7.12.804-10.706 1.151-.041.011-.072.011-.113.011H617.276c-.041 0-.072 0-.113-.011a560.647 560.647 0 0 1-10.706-1.151c-.799-.098-1.598-.185-2.387-.293h-.01a637.798 637.798 0 0 1-35.302-5.223c-35.661-6.32-69.867-15.55-102.156-27.375-2.151-.793-4.303-1.585-6.434-2.4-38.099-14.453-73.442-32.511-105.281-53.588a437.701 437.701 0 0 1-8.718-5.918 464.757 464.757 0 0 1-24.024-17.819c-16.524-13.085-31.829-27.071-45.792-41.861a364.964 364.964 0 0 1-9.046-9.903 383.082 383.082 0 0 1-20.571-25.334c-.287-.38-.564-.771-.84-1.151a350.942 350.942 0 0 1-18.972-28.461 336.479 336.479 0 0 1-7.765-13.671 324.028 324.028 0 0 1-9.23-18.504 317.46 317.46 0 0 1-10.746-26.387 303.896 303.896 0 0 1-5.04-15.43 71.373 71.373 0 0 1-.42-1.444 142.35 142.35 0 0 1-1.168-4.094 300.136 300.136 0 0 1-7.97-38.027 297.593 297.593 0 0 1-2.971-42.024c0-211.66 224.024-383.252 500.385-383.252s500.386 171.592 500.386 383.252z" class="colorFFF5ED svgShape"/><path fill="#ccf5d2" d="m246.492 577.043-47.646 38.028h-6.29a300.136 300.136 0 0 1-7.97-38.027h61.906z" class="colorF5DDCC svgShape"/><path fill="#ffffff" d="m325.671 577.043-38.98 38.027h-87.845l47.646-38.027z" class="colorFFF svgShape"/><path fill="#ccf5d2" d="m404.859 577.043-30.322 38.027h-87.846l38.98-38.027z" class="colorF5DDCC svgShape"/><path fill="#ffffff" d="m484.038 577.043-21.656 38.027h-87.845l30.322-38.027z" class="colorFFF svgShape"/><path fill="#ccf5d2" d="m563.227 577.043-13 38.027h-87.845l21.656-38.027z" class="colorF5DDCC svgShape"/><path fill="#ffffff" d="m642.406 577.043-4.334 38.027h-87.845l13-38.027z" class="colorFFF svgShape"/><path fill="#ccf5d2" d="M725.928 615.07h-87.856l4.334-38.027h79.188z" class="colorF5DDCC svgShape"/><path fill="#ffffff" d="M813.773 615.07h-87.845l-4.334-38.027h79.179z" class="colorFFF svgShape"/><path fill="#ccf5d2" d="M901.618 615.07h-87.845l-13-38.027h79.189z" class="colorF5DDCC svgShape"/><path fill="#ffffff" d="M989.464 615.07h-87.846l-21.656-38.027h79.179z" class="colorFFF svgShape"/><path fill="#ccf5d2" d="M1077.309 615.07h-87.845l-30.323-38.027h79.188z" class="colorF5DDCC svgShape"/><path fill="#ffffff" d="M1165.154 615.07h-87.845l-38.98-38.027h79.179z" class="colorFFF svgShape"/><path fill="#ccf5d2" d="M1179.414 577.043a265.74 265.74 0 0 1-1.363 8.654 300.366 300.366 0 0 1-6.608 29.373h-6.29l-47.646-38.028h61.907z" class="colorF5DDCC svgShape"/><path fill="#ffffff" d="m198.846 615.07-5.122 4.094a142.35 142.35 0 0 1-1.168-4.094h6.29z" class="colorFFF svgShape"/><path fill="#ccf5d2" d="m286.691 615.07-48.548 47.355H209.93a317.46 317.46 0 0 1-10.746-26.387 303.896 303.896 0 0 1-5.04-15.43 71.373 71.373 0 0 1-.42-1.444l5.122-4.094h87.845z" class="colorF5DDCC svgShape"/><path fill="#ffffff" d="M336.77 662.432h-98.637l48.558-47.364h87.847z" class="colorFFF svgShape"/><path fill="#ccf5d2" d="M435.407 662.432H336.77l37.768-47.364h87.846z" class="colorF5DDCC svgShape"/><path fill="#ffffff" d="M534.044 662.432h-98.637l26.977-47.364h87.846z" class="colorFFF svgShape"/><path fill="#ccf5d2" d="M632.682 662.432h-98.638l16.186-47.364h87.847z" class="colorF5DDCC svgShape"/><path fill="#ffffff" d="M731.319 662.432h-98.637l5.395-47.364h87.846z" class="colorFFF svgShape"/><path fill="#ccf5d2" d="M829.956 662.432h-98.637l-5.396-47.364h87.847z" class="colorF5DDCC svgShape"/><path fill="#ffffff" d="M928.593 662.432h-98.637l-16.186-47.364h87.846z" class="colorFFF svgShape"/><path fill="#ccf5d2" d="M1027.23 662.432h-98.637l-26.977-47.364h87.846z" class="colorF5DDCC svgShape"/><path fill="#ffffff" d="M1125.867 662.432h-98.637l-37.768-47.364h87.847z" class="colorFFF svgShape"/><path fill="#ccf5d2" d="M1170.276 619.164c-.133.478-.276.966-.42 1.444a302.576 302.576 0 0 1-5.04 15.43 317.265 317.265 0 0 1-10.747 26.387h-28.213l-48.548-47.355h87.845l5.123 4.094z" class="colorF5DDCC svgShape"/><path fill="#ffffff" d="M1171.444 615.07a140.063 140.063 0 0 1-1.167 4.094l-5.122-4.094h6.289zM238.133 662.426l-18.972 18.503a324.505 324.505 0 0 1-9.23-18.503h28.202z" class="colorFFF svgShape"/><path fill="#ccf5d2" d="m336.775 662.426-.01.011-48.333 60.625h-42.535a350.942 350.942 0 0 1-18.972-28.461 336.479 336.479 0 0 1-7.765-13.671l18.972-18.503h98.643z" class="colorF5DDCC svgShape"/><path fill="#ffffff" d="M400.875 723.062h-112.45l48.345-60.63h98.637z" class="colorFFF svgShape"/><path fill="#ccf5d2" d="M513.325 723.062h-112.45l34.532-60.63h98.637z" class="colorF5DDCC svgShape"/><path fill="#ffffff" d="M625.775 723.062h-112.45l20.719-60.63h98.638z" class="colorFFF svgShape"/><path fill="#ccf5d2" d="M738.225 723.062h-112.45l6.907-60.63h98.637z" class="colorF5DDCC svgShape"/><path fill="#ffffff" d="M850.675 723.062h-112.45l-6.906-60.63h98.637z" class="colorFFF svgShape"/><path fill="#ccf5d2" d="M963.125 723.062h-112.45l-20.719-60.63h98.637z" class="colorF5DDCC svgShape"/><path fill="#ffffff" d="M1075.575 723.062h-112.45l-34.532-60.63h98.637z" class="colorFFF svgShape"/><path fill="#ccf5d2" d="M1144.839 680.929a337.677 337.677 0 0 1-7.765 13.671 350.942 350.942 0 0 1-18.972 28.461h-42.535l-48.333-60.625-.01-.011h98.643l18.972 18.504z" class="colorF5DDCC svgShape"/><path fill="#ffffff" d="M1154.069 662.426a323.994 323.994 0 0 1-9.23 18.503l-18.972-18.503h28.202zM288.432 723.062l-21.123 26.485a383.082 383.082 0 0 1-20.571-25.334c-.287-.38-.564-.771-.84-1.151h42.534z" class="colorFFF svgShape"/><path fill="#ccf5d2" d="m400.875 723.062-45.772 80.377h-30.251a281.184 281.184 0 0 1-2.705-2.128c-16.524-13.085-31.829-27.071-45.792-41.861a364.964 364.964 0 0 1-9.046-9.903l21.123-26.485h112.443z" class="colorF5DDCC svgShape"/><path fill="#ffffff" d="M485.858 803.437H355.097l45.778-80.375h112.45z" class="colorFFF svgShape"/><path fill="#ccf5d2" d="M616.619 803.437H485.858l27.467-80.375h112.45z" class="colorF5DDCC svgShape"/><path fill="#ffffff" d="M747.381 803.437H616.619l9.156-80.375h112.45z" class="colorFFF svgShape"/><path fill="#ccf5d2" d="M878.142 803.437H747.381l-9.156-80.375h112.45z" class="colorF5DDCC svgShape"/><path fill="#ffffff" d="M1008.904 803.437H878.142l-27.467-80.375h112.45z" class="colorFFF svgShape"/><path fill="#ccf5d2" d="M1096.691 749.546a361.993 361.993 0 0 1-9.046 9.903c-13.963 14.79-29.268 28.776-45.792 41.861-.901.717-1.793 1.423-2.705 2.128h-30.251l-45.772-80.377h112.442l21.124 26.485z" class="colorF5DDCC svgShape"/><path fill="#ffffff" d="M1118.102 723.062c-.277.38-.553.771-.84 1.151a383.082 383.082 0 0 1-20.571 25.334l-21.124-26.485h42.535zM355.103 803.439l-8.933 15.691a464.757 464.757 0 0 1-21.319-15.691h30.252z" class="colorFFF svgShape"/><path fill="#ccf5d2" d="m485.852 803.439-25.683 75.197c-38.099-14.453-73.442-32.511-105.281-53.588a437.701 437.701 0 0 1-8.718-5.918l8.933-15.691h130.749z" class="colorF5DDCC svgShape"/><path fill="#ffffff" d="m616.621 803.439-12.549 110.195h-.01a637.798 637.798 0 0 1-35.302-5.223c-35.661-6.32-69.867-15.55-102.156-27.375-2.151-.793-4.303-1.585-6.434-2.4l25.683-75.197h130.768z" class="colorFFF svgShape"/><path fill="#ccf5d2" d="M759.939 913.634h-.01c-.789.109-1.588.195-2.387.293-3.555.413-7.107.977-10.706 1.151-32.38 1.565-129.673 0-129.673 0a560.647 560.647 0 0 1-10.706-1.151c-.799-.098-1.598-.185-2.387-.293h-.01l12.56-110.195h130.759l12.56 110.195z" class="colorF5DDCC svgShape"/><path fill="#ffffff" d="M903.831 878.636a581.856 581.856 0 0 1-6.434 2.4c-32.29 11.825-66.496 21.055-102.156 27.375a636.852 636.852 0 0 1-35.302 5.223h-.01L747.38 803.439h130.769l25.682 75.197z" class="colorFFF svgShape"/><path fill="#ccf5d2" d="M1017.83 819.13a431.963 431.963 0 0 1-8.718 5.918c-31.839 21.077-67.182 39.135-105.281 53.588l-25.683-75.197h130.749l8.933 15.691z" class="colorF5DDCC svgShape"/><path fill="#ffffff" d="M1039.149 803.439a464.21 464.21 0 0 1-21.319 15.691l-8.933-15.691h30.252z" class="colorFFF svgShape"/><path fill="#aef5b8" d="M841.09 306.564c-2.01 24.628-23.61 42.957-48.227 40.948-14.535-1.186-26.874-9.196-34.137-20.624a44.53 44.53 0 0 1-6.811-27.602c2.009-24.616 23.597-42.946 48.225-40.936a44.566 44.566 0 0 1 27.835 12.794c9.054 8.97 14.233 21.723 13.115 35.42z" class="colorF5CCAE svgShape"/><path fill="#c9e0cc" d="M841.09 306.564c-2.01 24.628-23.61 42.957-48.227 40.948-14.535-1.186-26.874-9.196-34.137-20.624 82.089 7.857 75.559-36.776 69.249-55.744 9.054 8.97 14.233 21.723 13.115 35.42z" class="colorE0D2C9 svgShape"/><path fill="#aef5b8" d="M844.304 591.005a4.622 4.622 0 0 0-1.576 1.438c-.014.023-.027.034-.029.058-2.346 3.641-6.316 5.908-10.638 5.556l-123.513-10.082a4.628 4.628 0 0 1-3.081-1.529 4.628 4.628 0 0 1-1.158-3.24 4.545 4.545 0 0 0-1.729-3.769c-4.487-3.5-6.112-6.489-6.065-8.98.043-3.624 3.558-6.23 6.924-7.896 2.538-1.263 3.314-4.418 1.708-6.755-6.236-9.102 1.963-17.991 4.278-20.213a4.43 4.43 0 0 1 1.213-.829c14.367-6.794 18.778-14.329 20.1-17.825a3.88 3.88 0 0 0 .258-1.088 4.45 4.45 0 0 0-.253-2.214c-.01-.025-.021-.038-.019-.062-3.038-8.263 4.204-10.456 6.886-10.984.331-.069.653-.164.952-.296.287-.121.564-.267.82-.452.23-.162.45-.349.648-.561 2.019-2.137 4.419-6.594 6.612-11.308.1-.197.189-.395.277-.592l63.78 5.206c2.646.216 4.885 2.026 5.691 4.55 1.14 3.613 2.374 6.799 3.621 8.648.16.254.358.487.571.685a4.324 4.324 0 0 0 1.628 1.025c2.561.956 9.34 4.294 5.002 11.955-.002.024-.015.035-.029.058a4.467 4.467 0 0 0-.609 2.144c-.03.371-.001.747.077 1.115.738 3.664 3.869 11.814 16.944 20.848.411.275.769.617 1.062 1.015 1.924 2.568 8.584 12.669.955 20.64-1.963 2.046-1.721 5.283.578 6.941 5.161 3.701 10.337 10.137-1.886 16.793z" class="colorF5CCAE svgShape"/><path fill="#c9e0cc" d="M844.316 591.006a4.622 4.622 0 0 0-1.576 1.438c-.014.023-.027.034-.029.058-2.346 3.641-6.316 5.908-10.638 5.556l-123.512-10.082a4.628 4.628 0 0 1-3.081-1.529 4.633 4.633 0 0 1-1.158-3.24 4.545 4.545 0 0 0-1.729-3.769c-4.488-3.5-6.112-6.489-6.065-8.98 59.17 9.711 110.11-28.906 130.06-46.803-.03.371 0 .747.078 1.115.737 3.664 3.869 11.814 16.944 20.848.411.275.769.617 1.062 1.015 1.924 2.568 8.584 12.669.955 20.64-1.962 2.046-1.721 5.283.579 6.941 5.157 3.7 10.332 10.136-1.89 16.792z" class="colorE0D2C9 svgShape"/><path fill="#aef5b8" d="M824.705 500.215c1.429 3.311-.517 6.78-3.955 7.849a7.32 7.32 0 0 1-2.197.339l-76.902-6.277a7.13 7.13 0 0 1-2.101-.69c-2.988-1.485-4.368-4.816-3.023-7.707.115-.232.242-.451.381-.68a121.701 121.701 0 0 0 5.926-10.279c23.888-46.37 11.011-93.558 3.947-112.587-1.542-4.14 2.097-8.266 6.934-7.871l75.609 6.171c.287.023.574.059.846.117 4.331.836 6.785 5.17 4.719 8.774-10.057 17.632-30.404 62.108-14.363 111.737a121.352 121.352 0 0 0 4.179 11.104zM827.214 521.452l-96.49-7.876c-.79-2.138-.878-3.868-.547-5.263.943-4.021 5.448-5.329 7.433-5.721.331-.069.653-.164.952-.296l82.733 6.753c.287.18.587.337.916.448 2.562.956 9.34 4.294 5.003 11.955z" class="colorF5CCAE svgShape"/><path fill="#c9e0cc" d="m827.214 521.452-96.49-7.876c-.79-2.138-.878-3.868-.547-5.263 4.977.31 11.071.662 18.091 1.031 3.577.184 10.887.551 23.682 1.053 34.118 1.363 40.072 1.065 45.13-.8.385-.137 1.206-.456 2.335-.701l1.88.153c.287.18.587.337.916.448 2.562.956 9.34 4.294 5.003 11.955zM824.705 500.215c1.429 3.311-.517 6.78-3.955 7.849a7.32 7.32 0 0 1-2.197.339l-76.902-6.277a7.13 7.13 0 0 1-2.101-.69c-2.988-1.485-4.368-4.816-3.023-7.707 51.207-15.153 83.059-94.403 93.643-125.129 4.331.836 6.785 5.17 4.719 8.774-10.057 17.632-30.404 62.108-14.363 111.737a121.352 121.352 0 0 0 4.179 11.104z" class="colorE0D2C9 svgShape"/><path fill="#aef5b8" d="M847.388 361.11a12.84 12.84 0 0 1-4.486 8.745 12.85 12.85 0 0 1-9.369 3.008l-84.924-6.932c-7.076-.578-12.331-6.78-11.754-13.844l.018-.215a12.86 12.86 0 0 1 4.47-8.542 12.823 12.823 0 0 1 9.357-3.009l84.924 6.932c.203.017.407.033.598.061 6.774.867 11.727 6.924 11.166 13.796z" class="colorF5CCAE svgShape"/><path fill="#aef5b8" d="M835.278 340.416a7.61 7.61 0 0 1-2.666 5.194 7.584 7.584 0 0 1-5.557 1.788l-67.911-5.543a7.636 7.636 0 0 1-6.306-4.396 7.636 7.636 0 0 1 1.979-9.035 7.64 7.64 0 0 1 5.57-1.787l67.911 5.543c4.2.343 7.323 4.033 6.98 8.236z" class="colorF5CCAE svgShape"/><path fill="#c9e0cc" d="M847.388 361.11a12.84 12.84 0 0 1-4.486 8.745 12.85 12.85 0 0 1-9.369 3.008l-84.924-6.932c-7.076-.578-12.331-6.78-11.754-13.844l.018-.215c66.948 14.817 91.421 2.34 99.349-4.558 6.774.867 11.727 6.924 11.166 13.796zM835.278 340.416a7.61 7.61 0 0 1-2.666 5.194 7.584 7.584 0 0 1-5.557 1.788l-67.911-5.543a7.636 7.636 0 0 1-6.306-4.396c44.953 6.236 65.226-.401 73.675-5.424l1.784.146c4.201.342 7.324 4.032 6.981 8.235z" class="colorE0D2C9 svgShape"/><path fill="#aef5b8" d="M856.283 606.106a8.793 8.793 0 0 1-3.089 6.014 8.803 8.803 0 0 1-6.435 2.066l-150.331-12.271a8.84 8.84 0 0 1-8.021-7.48 8.684 8.684 0 0 1-.067-2.038 8.81 8.81 0 0 1 3.09-6.021 8.816 8.816 0 0 1 6.435-2.066l150.331 12.271a8.824 8.824 0 0 1 8.087 9.525z" class="colorF5CCAE svgShape"/><path fill="#c9e0cc" d="M856.283 606.106a8.793 8.793 0 0 1-3.089 6.014 8.803 8.803 0 0 1-6.435 2.066l-150.331-12.271a8.84 8.84 0 0 1-8.021-7.48c129.435 19.047 158.501 10.799 163.719 3.436a8.826 8.826 0 0 1 4.157 8.235z" class="colorE0D2C9 svgShape"/><path fill="#277332" d="M964.918 610.153a5.645 5.645 0 0 0-2.068 1.658 5.942 5.942 0 0 0-1.091 2.418 5.726 5.726 0 0 1-6.466 4.566l-158.37-23.643a5.72 5.72 0 0 1-3.681-2.155 5.713 5.713 0 0 1-1.178-4.101 5.847 5.847 0 0 0-.469-2.982 5.54 5.54 0 0 0-1.354-1.838c-12.894-11.504-4.829-17.821 2.459-20.843 3.252-1.351 4.464-5.203 2.675-8.243-6.983-11.782 3.926-22.13 6.982-24.693a5.69 5.69 0 0 1 1.567-.926c18.363-7.222 24.457-16.191 26.394-20.419a5.82 5.82 0 0 0 .271-4.084c-3.146-10.572 6.044-12.695 9.418-13.121.298-.04.591-.096.871-.177a5.477 5.477 0 0 0 2.245-1.247c2.676-2.489 6.021-7.813 9.132-13.471.136-.241.263-.476.391-.717l84.103 12.556c1.359 6.587 3.051 13.008 4.954 16.319a5.514 5.514 0 0 0 1.808 1.883c.245.159.501.298.774.423 3.11 1.394 11.271 6.115 5.175 15.299a5.995 5.995 0 0 0-.857 2.031 5.828 5.828 0 0 0-.077 1.955c.017.095.024.196.04.298.713 4.746 4.109 14.925 19.239 26.94.481.379.897.833 1.229 1.344 2.174 3.344 9.585 16.426-.527 25.656-2.607 2.384-2.572 6.422.143 8.664 6.1 5.017 11.967 13.414-3.732 20.65z" class="color734727 svgShape"/><path fill="#277332" d="M973.293 416.773a92.002 92.002 0 0 1-.586 2.378L965.64 421a1.694 1.694 0 0 0-1.247 1.457 235.55 235.55 0 0 1-.37 3.555c-1.778 16.128-8.676 68.097-23.754 67.106-16.944-1.101-79.833-11.773-86.134-12.844a2.45 2.45 0 0 1-.943-.371c-4.74-3.243-6.819-8.815-5.917-14.035a13.947 13.947 0 0 1 3.84-7.454l49.489-50.335c.889-.912.481-2.448-.751-2.786l-25.83-7.136a2.395 2.395 0 0 0-1.807.214c-3.589 2.015-17.76 8.949-19.795-6.182a2.379 2.379 0 0 0-1.098-1.7c-2.591-1.631-9.001-6.959-1.255-16.289.187-.226.407-.416.659-.555 1.31-.749 5.892-3.445 11.589-7.642.69-.504 1.393-1.044 2.104-1.591.009-.006.016-.005.025-.012 13.234-6.574 24.757-26.179 28.296-32.642a3.312 3.312 0 0 1 2.779-1.736l.61.03.03.004c5.742.081 11.476.161 17.216.25l2.759-15.498a2.41 2.41 0 0 1 3.172-1.846c9.309 3.302 25.54 10.773 38.507 27.136 23.817 30.03 17.83 66.279 15.479 76.675z" class="color734727 svgShape"/><path fill="#277332" d="M952.353 501.204a7.484 7.484 0 0 1-2.973 4.941 7.481 7.481 0 0 1-5.594 1.4l-98.253-14.669a7.536 7.536 0 1 1 2.226-14.908l98.253 14.669c.293.044.584.103.864.183a7.526 7.526 0 0 1 5.477 8.384z" class="color734727 svgShape"/><path fill="#277332" d="M949.464 522.613a5.995 5.995 0 0 0-.857 2.031l-117.791-17.585a5.82 5.82 0 0 0-.226-2.192c-.676-2.267-.779-4.149-.5-5.706 1.028-5.7 7.264-7.081 9.919-7.415.298-.04.591-.096.871-.177l102.634 15.323c.245.159.501.298.774.423.763.344 1.827.88 2.918 1.649 3.34 2.334 6.856 6.723 2.258 13.649z" class="color734727 svgShape"/><path fill="#adc9b1" d="M964.918 610.153a5.645 5.645 0 0 0-2.068 1.658 5.942 5.942 0 0 0-1.091 2.418 5.726 5.726 0 0 1-6.466 4.566l-158.37-23.643a5.72 5.72 0 0 1-3.681-2.155 5.713 5.713 0 0 1-1.178-4.101 5.847 5.847 0 0 0-.469-2.982c103.813 4.905 146.435-45.487 156.975-59.016.713 4.746 4.109 14.925 19.239 26.94.481.379.897.833 1.229 1.344 2.174 3.344 9.585 16.426-.527 25.656-2.607 2.384-2.572 6.422.143 8.664 6.096 5.018 11.963 13.415-3.736 20.651z" class="colorC9B3AD svgShape"/><path fill="#277332" d="M970.824 627.848a10.102 10.102 0 0 1-4.001 6.655 10.113 10.113 0 0 1-7.532 1.875L787.966 610.8a10.153 10.153 0 0 1-8.618-9.186 9.969 9.969 0 0 1 .079-2.34 10.12 10.12 0 0 1 4.002-6.663 10.127 10.127 0 0 1 7.532-1.875l171.325 25.578c1.643.245 3.14.87 4.405 1.78a10.133 10.133 0 0 1 4.133 9.754z" class="color734727 svgShape"/><path fill="#adc9b1" d="M970.824 627.848a10.102 10.102 0 0 1-4.001 6.655 10.113 10.113 0 0 1-7.532 1.875L787.966 610.8a10.153 10.153 0 0 1-8.618-9.186c146.861 31.743 180.8 24.517 187.343 16.48a10.133 10.133 0 0 1 4.133 9.754zM949.464 522.613a5.995 5.995 0 0 0-.857 2.031l-117.791-17.585a5.82 5.82 0 0 0-.226-2.192c-.676-2.267-.779-4.149-.5-5.706 97.922 21.31 115.339 15.23 117.117 9.803 3.339 2.334 6.855 6.723 2.257 13.649zM952.353 501.204a7.484 7.484 0 0 1-2.973 4.941 7.481 7.481 0 0 1-5.594 1.4l-98.253-14.669a7.536 7.536 0 0 1-6.179-5.539c77.839 15.615 100.924 9.382 107.522 5.482a7.528 7.528 0 0 1 5.477 8.385z" class="colorC9B3AD svgShape"/><path fill="#adc9b1" d="M964.023 426.013c-1.778 16.128-8.676 68.097-23.754 67.106-16.944-1.101-79.833-11.773-86.134-12.844a2.45 2.45 0 0 1-.943-.371c-4.74-3.243-6.819-8.815-5.917-14.035 84.549 33.141 109.878-17.451 116.748-39.856z" class="colorC9B3AD svgShape"/><path fill="#277332" d="M545.627 296.631c6.12 23.941-8.334 48.304-32.263 54.421-14.129 3.612-28.404.057-38.992-8.383a44.525 44.525 0 0 1-15.428-23.88c-6.117-23.929 8.325-48.29 32.266-54.409a44.571 44.571 0 0 1 30.484 3.032c11.481 5.533 20.53 15.904 23.933 29.219z" class="color734727 svgShape"/><path fill="#adc9b1" d="M545.627 296.631c6.12 23.941-8.334 48.304-32.263 54.421-14.129 3.612-28.404.057-38.992-8.383 80.173-19.303 59.464-59.378 47.321-75.257 11.482 5.533 20.531 15.904 23.934 29.219z" class="colorC9B3AD svgShape"/><path fill="#277332" d="M641.296 564.52a4.609 4.609 0 0 0-1.021 1.873c-.006.026-.014.041-.008.064-1.033 4.207-4.048 7.643-8.249 8.717l-120.063 30.69a4.63 4.63 0 0 1-3.411-.442 4.63 4.63 0 0 1-2.15-2.687 4.548 4.548 0 0 0-2.862-3c-5.382-1.848-7.892-4.145-8.659-6.516-1.14-3.441 1.335-7.049 3.975-9.72 1.988-2.021 1.694-5.256-.584-6.943-8.86-6.576-4.003-17.649-2.538-20.504.222-.441.529-.842.877-1.179 11.371-11.103 13.089-19.663 13.2-23.399a3.803 3.803 0 0 0-.111-1.112 4.458 4.458 0 0 0-.96-2.011c-.018-.02-.032-.029-.038-.052-5.563-6.823.57-11.255 2.934-12.628.29-.174.564-.367.804-.59.232-.208.447-.437.628-.694.165-.228.312-.476.43-.742 1.213-2.678 2.031-7.673 2.569-12.845.031-.219.05-.434.069-.65l61.998-15.848c2.572-.657 5.278.325 6.862 2.449 2.254 3.044 4.459 5.655 6.24 6.998.234.188.497.344.763.462a4.322 4.322 0 0 0 1.873.439c2.733.07 10.229 1.018 8.623 9.674.006.023-.002.038-.008.064a4.457 4.457 0 0 0 .123 2.225c.092.361.242.707.436 1.029 1.891 3.224 7.505 9.91 22.81 14.194.478.126.928.333 1.335.613 2.655 1.801 12.242 9.183 7.624 19.204-1.19 2.573.093 5.556 2.807 6.375 6.081 1.818 13.07 6.219 3.682 16.492z" class="color734727 svgShape"/><path fill="#adc9b1" d="M641.307 564.517a4.614 4.614 0 0 0-1.021 1.873c-.005.026-.014.041-.008.064-1.033 4.207-4.047 7.643-8.249 8.717l-120.063 30.69a4.63 4.63 0 0 1-3.411-.442 4.634 4.634 0 0 1-2.15-2.687 4.551 4.551 0 0 0-2.862-3.001c-5.383-1.848-7.892-4.145-8.659-6.516 59.107-10.087 94.695-63.188 107.729-86.606.092.361.243.706.437 1.029 1.89 3.224 7.506 9.91 22.81 14.194.478.126.928.333 1.334.614 2.655 1.801 12.242 9.183 7.624 19.204-1.189 2.573.094 5.556 2.808 6.375 6.08 1.818 13.07 6.219 3.681 16.492z" class="colorC9B3AD svgShape"/><path fill="#277332" d="M593.198 485.062c2.43 2.665 1.719 6.579-1.184 8.709a7.298 7.298 0 0 1-1.967 1.036l-74.754 19.109a7.129 7.129 0 0 1-2.211.032c-3.309-.431-5.698-3.131-5.368-6.303a9.32 9.32 0 0 1 .139-.767 121.632 121.632 0 0 0 2.255-11.649c7.486-51.621-20.057-92.044-32.933-107.736-2.806-3.412-.709-8.498 3.993-9.7l73.497-18.787c.279-.071.562-.131.838-.165 4.367-.62 8.099 2.679 7.319 6.759-3.767 19.945-8.521 68.624 22.807 110.324a122.498 122.498 0 0 0 7.569 9.138zM602.487 504.324 508.692 528.3c-1.443-1.764-2.09-3.371-2.231-4.798-.418-4.109 3.416-6.812 5.165-7.83.29-.174.564-.367.804-.59l80.422-20.557c.33.077.665.128 1.012.126 2.733.069 10.229 1.017 8.623 9.673z" class="color734727 svgShape"/><path fill="#adc9b1" d="M602.487 504.324 508.692 528.3c-1.443-1.764-2.09-3.371-2.231-4.798a1891.627 1891.627 0 0 0 17.441-4.917c3.442-.991 10.473-3.024 22.734-6.716 32.702-9.822 38.235-12.043 42.41-15.453.319-.255.992-.824 1.98-1.424l1.827-.467c.33.077.665.128 1.012.126 2.732.069 10.228 1.017 8.622 9.673zM593.198 485.062c2.43 2.665 1.719 6.579-1.184 8.709a7.298 7.298 0 0 1-1.967 1.036l-74.754 19.109a7.129 7.129 0 0 1-2.211.032c-3.309-.431-5.698-3.131-5.368-6.303 43.481-31.003 47.789-116.305 47.789-148.803 4.367-.62 8.099 2.679 7.319 6.759-3.767 19.945-8.521 68.624 22.807 110.324a122.69 122.69 0 0 0 7.569 9.137z" class="colorC9B3AD svgShape"/><path fill="#277332" d="M569.346 346.153a12.836 12.836 0 0 1-9.273 15.625l-82.552 21.102c-6.879 1.758-13.867-2.395-15.622-9.261l-.054-.209a12.86 12.86 0 0 1 1.444-9.532 12.822 12.822 0 0 1 7.868-5.892l82.552-21.102c.198-.051.396-.101.585-.137 6.688-1.388 13.344 2.725 15.052 9.406z" class="color734727 svgShape"/><path fill="#277332" d="M551.156 330.53a7.608 7.608 0 0 1-.829 5.779 7.588 7.588 0 0 1-4.672 3.501l-66.014 16.874a7.637 7.637 0 0 1-7.394-2.102 7.638 7.638 0 0 1-1.071-9.187 7.637 7.637 0 0 1 4.684-3.503l66.014-16.874c4.084-1.045 8.238 1.427 9.282 5.512z" class="color734727 svgShape"/><path fill="#adc9b1" d="M569.346 346.153a12.836 12.836 0 0 1-9.273 15.625l-82.552 21.102c-6.879 1.758-13.867-2.395-15.622-9.261l-.054-.209c68.124-7.792 87.2-27.559 92.449-36.663 6.688-1.388 13.344 2.725 15.052 9.406zM551.156 330.53a7.608 7.608 0 0 1-.829 5.779 7.588 7.588 0 0 1-4.672 3.501l-66.014 16.874a7.637 7.637 0 0 1-7.394-2.102c44.534-8.743 61.54-21.62 67.892-29.121l1.734-.443c4.085-1.045 8.239 1.427 9.283 5.512z" class="colorC9B3AD svgShape"/><path fill="#277332" d="M657.539 574.897a8.792 8.792 0 0 1-.962 6.692 8.807 8.807 0 0 1-5.411 4.049l-146.132 37.354a8.839 8.839 0 0 1-10.019-4.461 8.712 8.712 0 0 1-.727-1.905 8.806 8.806 0 0 1 .961-6.699 8.819 8.819 0 0 1 5.411-4.049l146.132-37.354a8.828 8.828 0 0 1 10.747 6.373z" class="color734727 svgShape"/><path fill="#adc9b1" d="M657.539 574.897a8.792 8.792 0 0 1-.962 6.692 8.807 8.807 0 0 1-5.411 4.049l-146.132 37.354a8.839 8.839 0 0 1-10.019-4.461c128.582-24.142 153.378-41.406 155.914-50.066a8.825 8.825 0 0 1 6.61 6.432z" class="colorC9B3AD svgShape"/><path fill="#aef5b8" d="M931.706 666.856c-3.383-.197-6.364-1.751-8.453-4.099s-3.286-5.489-3.088-8.882l4.725-81.012c.32-5.491 4.215-9.937 9.285-11.202l.01.001a12.192 12.192 0 0 1 3.676-.339 12.255 12.255 0 0 1 8.463 4.099 12.226 12.226 0 0 1 3.078 8.871l-4.725 81.012a12.27 12.27 0 0 1-2.214 6.367c-2.371 3.347-6.361 5.44-10.757 5.184z" class="colorF5CCAE svgShape"/><path fill="#aef5b8" d="m754.698 655.122 5.84-100.123c3.85 2.712 12.568 5.376 24.384 7.928 31.052 6.706 83.461 12.643 124.871 16.67 5.058.487 9.956.953 14.624 1.377l-3.786 64.912a6.94 6.94 0 0 1-.597 2.473c-3.078-.069-6.246-.143-9.495-.211l-4.094-.088c-57.482-1.147-136.686-1.124-151.747 7.062z" class="colorF5CCAE svgShape"/><path fill="#aef5b8" d="M673.072 681.311a5.205 5.205 0 0 0-1.68-1.76 5.436 5.436 0 0 0-2.31-.8c-2.793-.283-4.876-2.732-4.713-5.542l8.572-146.967a5.272 5.272 0 0 1 1.667-3.549 5.338 5.338 0 0 1 3.658-1.418c1.67.027 3.265-.726 4.26-2.068 3.476-4.682 6.545-6.709 9.196-7.098 4.592-.679 7.96 3.566 10.1 7.629 1.505 2.867 5.134 3.663 7.763 1.772 10.219-7.371 20.594 1.765 23.193 4.354.401.386.726.858.978 1.356 8.129 16.216 16.85 21.055 20.877 22.478.7.252 1.44.346 2.179.288a5.183 5.183 0 0 0 1.583-.371c9.425-3.761 12.126 4.484 12.794 7.544.159.735.461 1.417.91 2.007.186.263.404.507.653.723 2.497 2.251 7.643 4.867 13.083 7.25.236.104.461.208.687.302l-4.552 78.05c-5.915 1.78-11.656 3.863-14.534 5.88a4.745 4.745 0 0 0-.754.661 5.099 5.099 0 0 0-1.138 1.897c-1.019 2.962-4.67 10.826-13.584 5.996a5.34 5.34 0 0 0-1.529-.543 5.076 5.076 0 0 0-2.197.023c-4.164.946-13.39 4.738-23.348 19.9a5.233 5.233 0 0 1-1.129 1.233c-2.882 2.27-14.248 10.137-23.542 1.639-2.39-2.194-6.087-1.825-7.915.847-4.097 5.998-11.3 12.064-19.228-1.713zM967.61 659.453c-.929-1.001-1.493-2.384-1.396-4.05l4.59-78.693c.345-5.912 8.48-7.25 10.667-1.755a.145.145 0 0 0 .018.032c1.471 3.621 3.724 6.773 6.336 9.484 5.944 6.178 13.726 10.036 18.199 11.909a5.53 5.53 0 0 1 3.38 5.424l-1.934 33.164a5.527 5.527 0 0 1-3.988 4.994c-4.66 1.34-12.827 4.258-19.45 9.703-2.908 2.378-5.524 5.258-7.406 8.692 0 0-.011.01-.022.029-2.019 3.729-6.665 3.609-8.994 1.067z" class="colorF5CCAE svgShape"/><path fill="#aef5b8" d="M955.31 657.587a10.752 10.752 0 0 1-7.405-3.584 10.775 10.775 0 0 1-2.699-7.782l3.665-62.844c.312-5.35 4.496-9.567 9.672-10.071a10.377 10.377 0 0 1 1.684-.033 10.752 10.752 0 0 1 7.415 3.585 11.089 11.089 0 0 1 1.72 2.628 10.656 10.656 0 0 1 .979 5.143l-3.665 62.844a10.739 10.739 0 0 1-1.336 4.605c-.078.137-.156.263-.235.399-2.013 3.268-5.7 5.349-9.795 5.11z" class="colorF5CCAE svgShape"/><path fill="#c9e0cc" d="M673.072 681.311a5.205 5.205 0 0 0-1.68-1.76 5.436 5.436 0 0 0-2.31-.8c-2.793-.283-4.876-2.732-4.713-5.542l8.572-146.967a5.272 5.272 0 0 1 1.667-3.549 5.338 5.338 0 0 1 3.658-1.418c1.67.027 3.265-.726 4.26-2.068 3.476-4.682 6.545-6.709 9.196-7.098 16.692 86.622 49.738 135.301 58.708 147.276a5.076 5.076 0 0 0-2.197.023c-4.164.946-13.39 4.738-23.348 19.9a5.233 5.233 0 0 1-1.129 1.233c-2.882 2.27-14.248 10.137-23.542 1.639-2.39-2.194-6.087-1.825-7.915.847-4.096 5.995-11.299 12.061-19.227-1.716z" class="colorE0D2C9 svgShape"/><path fill="#aef5b8" d="M663.104 694.852a10.071 10.071 0 0 1-6.965-3.376 10.085 10.085 0 0 1-2.536-7.31l10.053-172.371a10.122 10.122 0 0 1 8.348-9.378 9.937 9.937 0 0 1 2.33-.131 10.09 10.09 0 0 1 6.973 3.376 10.092 10.092 0 0 1 2.535 7.31l-10.053 172.371a10.037 10.037 0 0 1-1.373 4.533 10.097 10.097 0 0 1-9.312 4.976z" class="colorF5CCAE svgShape"/><path fill="#c9e0cc" d="M663.104 694.852a10.071 10.071 0 0 1-6.965-3.376 10.085 10.085 0 0 1-2.536-7.31l10.053-172.371a10.122 10.122 0 0 1 8.348-9.378c-18.364 148.637-8.153 181.683.412 187.459a10.097 10.097 0 0 1-9.312 4.976z" class="colorE0D2C9 svgShape"/><path fill="#aef5b8" d="M751.96 659.928a5.34 5.34 0 0 0-1.529-.543l6.381-109.397a5.183 5.183 0 0 0 1.583-.371c2.413-.967 4.387-1.134 5.99-.819 4.689.938 6.302 6.088 6.804 8.363.159.735.461 1.417.91 2.007l-5.416 92.866a4.877 4.877 0 0 0-1.02 1.602c-.046.098-.082.197-.118.295-1.02 2.963-4.671 10.827-13.585 5.997z" class="colorF5CCAE svgShape"/><path fill="#c9e0cc" d="M751.96 659.928a5.34 5.34 0 0 0-1.529-.543l6.381-109.397a5.183 5.183 0 0 0 1.583-.371c2.413-.967 4.387-1.134 5.99-.819-8.058 79.8-1.242 100.22 1.278 104.839-.046.098-.082.197-.118.295-1.02 2.962-4.671 10.826-13.585 5.996zM766.698 651.759l5.367-92.024c3.683 1.083 8.013 2.143 12.857 3.19 37.984 77.802 125.618 85.198 125.618 85.198l-.001.021c-48.615-1.037-114.899-1.325-143.841 3.615z" class="colorE0D2C9 svgShape"/><path fill="#aef5b8" d="M912.877 652.786a7.329 7.329 0 0 1-5.054-2.45 7.215 7.215 0 0 1-1.378-2.276 7.248 7.248 0 0 1-.468-3.029l3.87-66.358a7.334 7.334 0 0 1 6.949-6.897c.264-.025.535-.019.806-.003a7.33 7.33 0 0 1 5.054 2.45 7.323 7.323 0 0 1 1.846 5.304l-3.87 66.358a6.94 6.94 0 0 1-.597 2.473 7.313 7.313 0 0 1-7.158 4.428z" class="colorF5CCAE svgShape"/><path fill="#c9e0cc" d="M912.877 652.786a7.329 7.329 0 0 1-5.054-2.45 7.215 7.215 0 0 1-1.378-2.276 7.248 7.248 0 0 1-.468-3.029l3.87-66.358a7.334 7.334 0 0 1 6.949-6.897c-3.881 34.42.672 58.082 4.081 69.903l-.245 4.206a6.94 6.94 0 0 1-.597 2.473 7.313 7.313 0 0 1-7.158 4.428z" class="colorE0D2C9 svgShape"/><path fill="#c9e0cc" d="M931.706 666.856c-3.383-.197-6.364-1.751-8.453-4.099s-3.286-5.489-3.088-8.882l4.725-81.012c.32-5.491 4.215-9.937 9.285-11.202-14.503 88.066-.488 100.053 8.287 100.01-2.37 3.348-6.36 5.441-10.756 5.185zM955.31 657.587a10.752 10.752 0 0 1-7.405-3.584 10.775 10.775 0 0 1-2.699-7.782l3.665-62.844c.312-5.35 4.496-9.567 9.672-10.071-6.468 52.881 1.514 71.959 6.599 78.53.066.084-.037.642-.037.642-2.013 3.267-5.7 5.348-9.795 5.109zM966.214 655.403l4.59-78.693c.345-5.912 8.48-7.25 10.667-1.755a.145.145 0 0 0 .018.032c-.001.01.009.01.009.021-6.095 45.792 11.994 60.454 21.872 64.988-6.761 1.952-20.601 7.168-26.743 18.362 0 0-.011.009-.012.029-2.811 5.204-10.745 2.918-10.401-2.984z" class="colorE0D2C9 svgShape"/><path fill="#aef5b8" d="M1051.376 676.867c-22.288-2.942-45.062-11.542-66.565-17.398-2.855-.781-3.321-1.946-3.297-3.395.063-3.32 2.26-10.081 2.66-11.769.121-.527.176-.765.212-.864-.004.07-.044.229-.059.319.925-2.907 3.169-9.615 3.693-11.165.061-.188.12-.336.147-.455.035-.089.061-.178.097-.277.901-2.677 2.054-8.451 2.295-9.827.057-.289.088-.468.105-.588-.001.01-.001.02-.012.03a.175.175 0 0 1 .014-.07c.015-.08.028-.139.028-.139.209-.995.343-2.428.428-3.893.085-1.465.119-2.904.027-3.916 0 0-.007-.061-.012-.141-.009-.021-.007-.051-.006-.071.009.011.009.021.008.031a11.893 11.893 0 0 0-.036-.597c-.08-1.394-.553-7.263-1.137-10.027-.024-.102-.039-.193-.064-.286-.013-.122-.055-.275-.093-.469-.34-1.601-1.789-8.524-2.37-11.519.017.222.087.921-.088-.559-.201-1.724-1.598-8.694-1.274-11.999.145-1.442.743-2.545 3.669-2.989 4.562-.69 9.192-1.488 13.863-2.324 17.902-3.196 36.452-6.958 54.274-7.218 2.984-.048 3.736.701 4.067 2.614.619 3.551.274 7.217.306 10.804.018 1.945-1.982 2.564-3.991 2.628-2.008.074-6.263-.013-8.293.07-2.029.083-4.022.752-4.164 2.658-.255 3.51-.385 6.957-.386 10.421.001 1.873 1.741 2.438 3.629 2.538 1.887.1 5.63-.004 7.563.189 1.923.183 3.673.909 3.681 2.854.013 3.576-.122 7.275-.422 10.852-.173 1.934-1.946 2.455-3.899 2.442-1.954-.003-5.709-.373-7.653-.366-1.944.008-3.658.552-3.818 2.436a278.026 278.026 0 0 0-.374 5.034 290.859 290.859 0 0 0-.214 5.044c-.06 1.89 1.579 2.63 3.509 2.864 1.93.233 5.703.302 7.644.526 1.941.214 3.641.938 3.589 2.879a126.074 126.074 0 0 1-.843 10.828c-.234 1.93-2.056 2.448-3.987 2.406-1.942-.033-5.647-.571-7.534-.691-1.887-.12-3.68.239-3.899 2.099a143.81 143.81 0 0 0-.828 10.396c-.081 1.909 1.821 2.806 3.826 3.124 2.006.318 6.243.727 8.229 1.034 1.967.296 3.853 1.121 3.662 3.003l-.004.071c-.449 3.559-.533 7.24-1.56 10.696-.551 1.86-1.385 2.516-4.343 2.122z" class="colorF5CCAE svgShape"/><path fill="#c9e0cc" d="M1051.376 676.867c-22.288-2.942-45.062-11.542-66.565-17.398-2.855-.781-3.321-1.946-3.297-3.395.063-3.32 2.26-10.081 2.66-11.769.121-.527.176-.765.212-.864-.004.07-.044.229-.059.319.925-2.907 3.169-9.615 3.693-11.165.061-.188.12-.336.147-.455.035-.089.061-.178.097-.277.901-2.677 2.054-8.451 2.295-9.827.057-.289.088-.468.105-.588-.001.01-.001.02-.012.03a.175.175 0 0 1 .014-.07c.015-.08.028-.139.028-.139.209-.995.343-2.428.428-3.893.085-1.465.119-2.904.027-3.916 0 0-.007-.061-.012-.141-.009-.021-.007-.051-.006-.071.009.011.009.021.008.031a11.893 11.893 0 0 0-.036-.597c-.08-1.394-.553-7.263-1.137-10.027-.024-.102-.039-.193-.064-.286-.013-.122-.055-.275-.093-.469-.34-1.601-1.789-8.524-2.37-11.519.017.222.087.921-.088-.559-.201-1.724-1.598-8.694-1.274-11.999.145-1.442.743-2.545 3.669-2.989 4.562-.69 9.192-1.488 13.863-2.324-10.646 75.802 32.416 89.342 53.674 91.468l-.004.071c-.449 3.559-.533 7.24-1.56 10.696-.551 1.86-1.385 2.516-4.343 2.122z" class="colorE0D2C9 svgShape"/><path fill="#aef5b8" d="M383.98 654.751c1.516-.868 2.265-3.086 1.814-5.352l-9.11-45.739c-.451-2.266-1.993-4.028-3.726-4.249a59.33 59.33 0 0 0-3.539-.342c-33.428-2.217-44.317 26.637-47.003 36.259-.523 1.869-.081 4.086 1.118 5.612a62.562 62.562 0 0 0 8.287 8.661c10.571 9.11 28.842 18.459 52.159 5.15z" class="colorF5CCAE svgShape"/><path fill="#c9e0cc" d="M383.98 654.751c1.516-.868 2.265-3.086 1.814-5.352l-9.11-45.739c-.451-2.266-1.993-4.028-3.726-4.249a59.33 59.33 0 0 0-3.539-.342c-2.181 22.121-25.95 42.022-37.598 50.533 10.571 9.109 28.842 18.458 52.159 5.149z" class="colorE0D2C9 svgShape"/><path fill="#aef5b8" d="M700.287 654.47a5.983 5.983 0 0 1 1.698-2.331 6.167 6.167 0 0 1 2.575-1.315 6.255 6.255 0 0 0 4.629-7.289l-31.356-157.426a6.217 6.217 0 0 0-2.541-3.894 6.226 6.226 0 0 0-4.526-1.058c-1.959.297-3.96-.335-5.346-1.739-3.368-3.425-6.29-5.376-8.831-6.264-7.432-2.59-11.565 4.009-13.733 10.04-1.299 3.611-5.437 5.136-8.826 3.345-13.205-6.98-23.894 5.452-26.525 8.906a6.23 6.23 0 0 0-.926 1.755c-6.895 20.374-16.347 27.484-20.84 29.815a6.257 6.257 0 0 1-3.095.701 5.892 5.892 0 0 1-1.338-.19c-5.621-1.38-8.969.25-10.95 2.73-2.14 2.655-2.706 6.298-2.847 8.218a6.035 6.035 0 0 1-.953 2.891 4.747 4.747 0 0 1-.426.575c-1.148 1.36-2.918 2.904-5.053 4.52-2.626 1.992-5.82 4.106-9.13 6.142a131.987 131.987 0 0 1-20.528 10.27 133.78 133.78 0 0 1-13.688 4.584c-26.659 7.387-55.167 14.983-78.118 21.015-3.634.961-7.134 1.877-10.464 2.751-2.322.598-4.554 1.178-6.697 1.74-.939.246-1.862.489-2.77.72l-1.573.415a7495.03 7495.03 0 0 1-17.338 4.492c-.249.066-.491.123-.731.188a6.08 6.08 0 0 0-2.4 1.221 6.127 6.127 0 0 0-2.07 3.258 6.077 6.077 0 0 0 .048 3.335l4.884 16.593 1.841 17.173a6.144 6.144 0 0 0 1.256 3.128 6.121 6.121 0 0 0 3.136 2.179 6.132 6.132 0 0 0 2.735.207c.205-.032.419-.058.64-.094 2.453-.362 5.497-.808 9.042-1.328l6.566-.953c.707-.099 1.428-.209 2.167-.313 1.436-.21 2.914-.42 4.44-.648 5.336-.767 11.241-1.606 17.557-2.5l2.193-.31.049-.01.008-.002c23.378-3.297 52.07-7.213 79.021-10.546.445-.055.898-.111 1.345-.158a.286.286 0 0 1 .083-.008c.239-.031.479-.053.72-.076.231-.029.471-.051.711-.074 3.827-.374 7.667-.556 11.504-.543.887.001 1.395.009 1.395.009.914.012 1.816.044 2.727.082.629.018 1.252.055 1.876.091.512.025 1.025.058 1.53.092.609.048 1.208.089 1.809.138.422.042.843.077 1.257.121 1.017.101 2.035.211 3.056.337 9.355 1.177 20.438 3.014 25.413 5.562.282.146.552.312.8.499a6.279 6.279 0 0 1 1.847 2.191c.473.936 1.262 2.308 2.367 3.616 2.791 3.329 7.626 6.318 14.564 1.211.058-.045.119-.083.177-.128.312-.214.639-.397.986-.559a6.337 6.337 0 0 1 3.127-.538c5.043.431 16.498 3.377 30.674 19.554.438.504.954.933 1.528 1.267 3.755 2.19 18.39 9.57 27.913-1.937 2.444-2.953 6.851-3.129 9.434-.291 5.788 6.366 15.241 12.32 22.291-5.155z" class="colorF5CCAE svgShape"/><path fill="#aef5b8" d="M722.998 659.77a10.325 10.325 0 0 0 6.595-4.413 10.334 10.334 0 0 0 1.541-7.781L696.555 473.97a10.374 10.374 0 0 0-9.802-8.342c-.783-.03-1.581.036-2.385.196a10.343 10.343 0 0 0-6.603 4.414 10.349 10.349 0 0 0-1.541 7.781l34.579 173.606a10.289 10.289 0 0 0 2.035 4.408 10.354 10.354 0 0 0 10.16 3.737z" class="colorF5CCAE svgShape"/><path fill="#c9e0cc" d="M700.287 654.47a5.983 5.983 0 0 1 1.698-2.331 6.167 6.167 0 0 1 2.575-1.315 6.255 6.255 0 0 0 4.629-7.289l-31.356-157.426a6.217 6.217 0 0 0-2.541-3.894 6.226 6.226 0 0 0-4.526-1.058c-1.959.297-3.96-.335-5.346-1.739-3.368-3.425-6.29-5.376-8.831-6.264 12.048 92.243-33.036 149.291-52.253 168.978.312-.214.639-.397.986-.559a6.337 6.337 0 0 1 3.127-.538c5.043.431 16.498 3.377 30.674 19.554.438.504.954.933 1.528 1.267 3.755 2.19 18.39 9.57 27.913-1.937 2.444-2.953 6.851-3.129 9.434-.291 5.786 6.363 15.239 12.317 22.289-5.158zM587.228 637.432c.473.936 1.262 2.308 2.367 3.616-5.359-32.163-12.57-74.514-19.238-110.791-2.14 2.655-2.706 6.298-2.847 8.218a6.035 6.035 0 0 1-.953 2.891c-.202.344-.309.526-.426.575-1.148 1.36-2.918 2.904-5.053 4.52.044.093.081.195.125.288-2.821 15.602-9.496 37.461-27.716 52.406-11.772 9.667-21.816 11.051-41.446 19.386-10.443 4.427-24.184 11.075-39.907 21.174 23.378-3.297 52.07-7.213 79.021-10.546.445-.055.898-.111 1.345-.158a.286.286 0 0 1 .083-.008c.239-.031.479-.053.72-.076.231-.029.471-.051.711-.074.612-.06 1.224-.106 1.836-.156 3.756-.288 7.199-.361 9.214-.383.151 0 .303-.005.454-.004.887.001 1.395.009 1.395.009.914.012 1.816.044 2.727.082.629.018 1.252.055 1.876.091.512.025 1.025.058 1.53.092.609.048 1.208.089 1.809.138.422.042.835.079 1.257.121 1.017.101 2.035.211 3.056.337 9.355 1.177 20.438 3.014 25.413 5.562.282.146.552.312.8.499a6.277 6.277 0 0 1 1.847 2.191z" class="colorE0D2C9 svgShape"/><path fill="#aef5b8" d="M604.159 642.26a6.45 6.45 0 0 1 1.163-.687l-22.678-113.856a5.892 5.892 0 0 1-1.338-.19c-11.676-2.868-13.512 7.252-13.797 10.949a6.035 6.035 0 0 1-.857 2.737l18.728 94.028a6.279 6.279 0 0 1 1.847 2.191c1.675 3.316 7.246 11.951 16.932 4.828z" class="colorF5CCAE svgShape"/><path fill="#c9e0cc" d="M604.159 642.26a6.455 6.455 0 0 1 1.163-.688l-22.678-113.855a5.948 5.948 0 0 1-1.338-.19c-2.717-.667-4.906-.636-6.664-.134 4.63 21.212 9.577 32.058 12.803 51.134 4.443 26.249 2.356 48.714-.379 58.599.054.099.109.206.162.305 1.674 3.316 7.245 11.952 16.931 4.829zM429.982 642.936l-9.846-49.434c-.489.131-.978.262-1.461.384 9.139 40.582-.885 48.684-.885 48.684-.052.669.069 1.363.356 2.083l6.566-.953c.707-.099 1.428-.209 2.167-.313 1.009-.152 2.044-.298 3.103-.451z" class="colorE0D2C9 svgShape"/><path fill="#aef5b8" d="M440.552 650.678a8.86 8.86 0 0 0 5.642-3.767 8.901 8.901 0 0 0 1.352-6.485L437.383 589.4a8.855 8.855 0 0 0-10.42-6.952 8.852 8.852 0 0 0-6.953 10.412l10.129 50.856c.042.211.092.421.149.621 1.213 4.445 5.683 7.254 10.264 6.341z" class="colorF5CCAE svgShape"/><path fill="#c9e0cc" d="M440.552 650.678a8.86 8.86 0 0 0 5.642-3.767 8.873 8.873 0 0 0 1.318-6.655l-10.13-50.856a8.855 8.855 0 0 0-6.436-6.833c10.427 35.477 4.008 53.747-.66 61.771 1.215 4.444 5.685 7.253 10.266 6.34z" class="colorE0D2C9 svgShape"/><path fill="#aef5b8" d="m425.701 651.271-12.685-63.684c-.952-4.778-7.746-4.949-8.907-.217a2.403 2.403 0 0 0-.006.026c-2.589 10.258-12.641 17.313-17.594 20.241a4.55 4.55 0 0 0-2.135 4.81l5.345 26.836a4.549 4.549 0 0 0 3.815 3.625c5.697.807 17.685 3.471 24.007 11.955l.015.021c2.883 3.928 9.097 1.166 8.145-3.613z" class="colorF5CCAE svgShape"/><path fill="#c9e0cc" d="m425.701 651.271-12.684-63.682c-.953-4.784-7.742-4.952-8.903-.22a.123.123 0 0 1-.011.028c.002.008-.007.01-.005.018 10.175 36.668-2.918 50.685-10.462 55.506 5.738.825 17.622 3.508 23.905 11.943 0 0 .01.006.013.023 2.885 3.926 9.098 1.16 8.147-3.616z" class="colorE0D2C9 svgShape"/><path fill="#aef5b8" d="M394.102 662.236a8.528 8.528 0 0 0 5.447-3.644 8.58 8.58 0 0 0 1.277-6.436l-11.126-55.86a8.551 8.551 0 0 0-7.57-6.844 8.193 8.193 0 0 0-2.501.118 8.572 8.572 0 0 0-6.735 10.073l11.126 55.86a8.548 8.548 0 0 0 2.467 4.5 8.572 8.572 0 0 0 7.615 2.233z" class="colorF5CCAE svgShape"/><path fill="#c9e0cc" d="M394.102 662.236a8.528 8.528 0 0 0 5.447-3.644 8.58 8.58 0 0 0 1.277-6.436l-11.126-55.86a8.551 8.551 0 0 0-7.57-6.844c16.343 54.703 10.159 67.833 4.358 70.551a8.57 8.57 0 0 0 7.614 2.233z" class="colorE0D2C9 svgShape"/><path fill="#aef5b8" d="m324.192 652.65 4.557-.908a4.748 4.748 0 0 0 3.726-5.59l-3.797-19.064a4.736 4.736 0 0 0-4.746-3.818 3.926 3.926 0 0 0-.837.082l-4.557.908a4.755 4.755 0 0 0-3.734 5.591l3.797 19.064c.128.642.379 1.225.725 1.73a4.748 4.748 0 0 0 4.866 2.005z" class="colorF5CCAE svgShape"/><path fill="#c9e0cc" d="m324.192 652.65 4.557-.908a4.748 4.748 0 0 0 3.726-5.59l-3.797-19.064a4.736 4.736 0 0 0-4.746-3.818c4.639 18.457-.819 25.059-4.605 27.375a4.746 4.746 0 0 0 4.865 2.005zM722.998 659.77a10.325 10.325 0 0 0 6.595-4.413 10.334 10.334 0 0 0 1.541-7.781L696.555 473.97a10.374 10.374 0 0 0-9.802-8.342c39.661 148.331 33.965 183.33 26.085 190.406a10.356 10.356 0 0 0 10.16 3.736z" class="colorE0D2C9 svgShape"/><circle cx="690.33" cy="58.333" r="15.013" fill="#60c76f" class="color6092C7 svgShape"/><circle cx="690.33" cy="58.333" r="15.013" fill="#277332" class="color734727 svgShape"/><path fill="#adc9b1" d="M705.343 58.327c0 8.302-6.716 15.018-15.006 15.018a14.91 14.91 0 0 1-9.719-3.58 14.92 14.92 0 0 0 6.464 1.466c8.29 0 15.018-6.728 15.018-15.018 0-4.565-2.043-8.65-5.25-11.414a15 15 0 0 1 8.493 13.528z" class="colorC9B3AD svgShape"/><path fill="#277332" d="M819.789 679.471a8.684 8.684 0 0 0-2.835 3.076 8.962 8.962 0 0 0-1.141 4.037c-.229 4.842-4.217 8.65-9.059 8.65H573.903a9.011 9.011 0 0 1-6.259-2.511 9.026 9.026 0 0 1-2.787-6.139c-.133-2.871-1.598-5.539-3.989-7.112-9.924-6.512-13.444-12.411-13.348-17.529.096-6.668 6.271-12.014 12.327-15.643 4.77-2.871 5.767-9.191 2.259-13.504-12.327-15.15-1.634-31.862 3.652-38.47a51.972 51.972 0 0 1 1.502-1.79 9.022 9.022 0 0 1 2.235-1.814c27.032-15.583 34.469-31.045 36.512-38.098a8.913 8.913 0 0 0 .36-2.367h167.937c.012.805.12 1.586.349 2.367.637 2.211 1.802 5.25 3.941 8.843 4.685 7.906 14.008 18.55 32.571 29.255a8.83 8.83 0 0 1 2.235 1.814c4.181 4.722 18.826 23.452 5.154 40.26-3.508 4.313-2.511 10.633 2.259 13.504 10.691 6.427 21.84 18.189-1.024 33.171zM777.235 539.179c-.192 2.066-.829 4.385-2.054 6.992a9.3 9.3 0 0 0-.877 4.085H606.366a9.29 9.29 0 0 0-.889-4.085c-7.389-15.799 6.488-21.278 11.666-22.731.252-.072.505-.156.757-.252.132-.048.264-.108.396-.168h.012c.024-.012.036-.012.06-.024.133-.048.265-.108.397-.18a8.294 8.294 0 0 0 2.92-2.319c3.604-4.517 7.593-13.624 11.149-23.2 6.308-17 10.104-34.818 11.438-52.887 5.214-70.633 9.719-149.639 11.21-176.311.276-5.118 4.746-8.975 9.864-8.506l24.99 2.247 1.454-.132 23.5-2.115c5.13-.469 9.612 3.436 9.864 8.578 1.345 26.888 5.466 106.676 10.717 177.849a164.652 164.652 0 0 0 7.954 39.852c4.325 12.976 10.08 28.222 15.114 34.577a8.693 8.693 0 0 0 2.956 2.367 8.586 8.586 0 0 0 1.621.637c3.929 1.093 12.867 4.505 13.72 12.988.083.851.095 1.765-.001 2.738z" class="color734727 svgShape"/><path fill="#adc9b1" d="M777.235 539.179c-.192 2.066-.829 4.385-2.054 6.992a9.3 9.3 0 0 0-.877 4.085H606.366a9.29 9.29 0 0 0-.889-4.085c-7.389-15.799 6.488-21.278 11.666-22.731.252-.072.505-.156.757-.252.132-.048.264-.108.396-.168h.012c.36-.072.721-.132 1.081-.204 101.245-19.692 79.043-215.286 72.399-261.109l23.5-2.115c5.13-.469 9.612 3.436 9.864 8.578 1.345 26.888 5.466 106.676 10.717 177.849a164.652 164.652 0 0 0 7.954 39.852c4.325 12.976 10.08 28.222 15.114 34.577a8.693 8.693 0 0 0 2.956 2.367 8.586 8.586 0 0 0 1.621.637c3.929 1.093 12.867 4.505 13.72 12.988.085.852.097 1.766.001 2.739z" class="colorC9B3AD svgShape"/><path fill="#277332" d="M820.524 695.234H563.74a15.012 15.012 0 0 0-10.633 4.397 15 15 0 0 0-4.409 10.645c0 8.302 6.74 15.03 15.042 15.03h256.783c4.157 0 7.917-1.682 10.633-4.397a14.972 14.972 0 0 0 4.409-10.633c.001-8.314-6.727-15.042-15.041-15.042zM729.794 277.833h-78.929c-6.073 0-10.996-4.923-10.996-10.996v-3.706c0-6.073 4.923-10.996 10.996-10.996h78.929c6.073 0 10.996 4.923 10.996 10.996v3.706c0 6.073-4.923 10.996-10.996 10.996z" class="color734727 svgShape"/><path fill="#adc9b1" d="M740.79 264.977c0 3.544-1.43 6.764-3.76 9.095a12.8 12.8 0 0 1-9.083 3.76h-75.222c-4.337 0-8.17-2.151-10.489-5.43h80.316c7.1 0 12.855-5.755 12.855-12.855v-5.022c3.257 2.33 5.383 6.139 5.383 10.452z" class="colorC9B3AD svgShape"/><path fill="#277332" d="M777.234 536.438v2.739c-.192 2.066-.829 4.385-2.054 6.992a9.297 9.297 0 0 0-.877 4.085H606.365a9.17 9.17 0 0 0-.793-3.869c-.036-.072-.06-.144-.096-.216-7.389-15.799 6.488-21.277 11.666-22.731a8.96 8.96 0 0 0 .757-.253c.132-.048.265-.108.397-.168h.012c.023-.012.036-.012.06-.024.132-.06.276-.12.397-.18h143.128c.517.264 1.057.48 1.622.636 3.927 1.095 12.866 4.507 13.719 12.989z" class="color734727 svgShape"/><path fill="#adc9b1" d="M819.789 679.471a8.684 8.684 0 0 0-2.835 3.076 8.962 8.962 0 0 0-1.141 4.037c-.229 4.842-4.217 8.65-9.059 8.65H573.903a9.011 9.011 0 0 1-6.259-2.511 9.026 9.026 0 0 1-2.787-6.139c-.133-2.871-1.598-5.539-3.989-7.112-9.924-6.512-13.444-12.411-13.348-17.529 150-6.776 205.686-76.135 224.489-111.686h2.294c.012.805.12 1.586.349 2.367.637 2.211 1.802 5.25 3.941 8.843 4.685 7.906 14.008 18.55 32.571 29.255a8.83 8.83 0 0 1 2.235 1.814c4.181 4.722 18.826 23.452 5.154 40.26-3.508 4.313-2.511 10.633 2.259 13.504 10.692 6.427 21.841 18.189-1.023 33.171zM835.566 710.276c0 4.157-1.682 7.906-4.409 10.633a14.989 14.989 0 0 1-10.632 4.397H563.74c-8.038 0-14.621-6.32-15.018-14.261 158.927 18.346 233.44-3.4 261.253-15.811h10.549c8.314 0 15.042 6.728 15.042 15.042z" class="colorC9B3AD svgShape"/><path fill="#277332" d="M739.007 252.135H644.81c-7.067 0-9.235-9.618-2.833-12.61a.557.557 0 0 1 .036-.016c13.861-6.59 21.048-22.89 23.811-30.766a6.599 6.599 0 0 1 6.238-4.4h39.694c2.803 0 5.311 1.755 6.238 4.4 2.762 7.876 9.95 24.176 23.811 30.766l.034.016c6.405 2.988 4.236 12.61-2.832 12.61z" class="color734727 svgShape"/><path fill="#adc9b1" d="M739.008 252.135h-94.193c-7.077 0-9.239-9.612-2.836-12.603.024-.012.036-.024.036-.024.012 0 .012-.012.024-.012 55.05 4.085 71.282-18.514 76.003-30.613 2.799 7.929 9.984 24.077 23.765 30.625 0 0 .012.012.036.012 6.404 2.991 4.23 12.615-2.835 12.615z" class="colorC9B3AD svgShape"/><path fill="#277332" d="M782.248 81.304c-4.361 8.074-45.715 85.663-43.132 118.846a.433.433 0 0 1-.432.469H690.41c-.036 0-.06-.012-.084-.012s-.048.012-.072.012H641.98a.425.425 0 0 1-.432-.469c.565-7.329-.997-16.808-3.845-27.237-10.02-36.8-35.887-85.314-39.287-91.61a.443.443 0 0 1 .445-.649c8.133.973 27.933 20.1 31.453 23.548.241.228.637.12.721-.216l9.804-37.521a.437.437 0 0 1 .793-.132l28.51 42.663a.445.445 0 0 0 .757-.036l19.031-35.431c.024-.024.048-.024.06-.048.012-.024.036-.036.06-.06.06-.036.096-.084.156-.096.048-.012.084 0 .12-.012.048.012.084 0 .12.012.06.012.109.06.157.096.024.024.048.036.072.06.012.024.036.024.048.048l19.042 35.431a.434.434 0 0 0 .745.036l28.522-42.663a.437.437 0 0 1 .793.132l9.792 37.521a.442.442 0 0 0 .733.216c.241-.228.553-.541.937-.913 5.215-5.046 22.936-21.734 30.516-22.635a.443.443 0 0 1 .445.65z" class="color734727 svgShape"/><path fill="#adc9b1" d="M782.248 81.304c-4.361 8.074-45.715 85.663-43.132 118.846a.433.433 0 0 1-.432.469H690.41c-.036 0-.06-.012-.084-.012s-.048.012-.072.012H641.98a.425.425 0 0 1-.432-.469c.565-7.329-.997-16.808-3.845-27.237 60.853-13.132 94.83-43.024 113.584-69.623 5.215-5.046 22.936-21.734 30.516-22.635a.443.443 0 0 1 .445.649z" class="colorC9B3AD svgShape"/><path fill="#277332" d="M736.336 215.245h-92.012c-6.916 0-12.522-5.606-12.522-12.522v-4.22c0-6.916 5.606-12.522 12.522-12.522h92.012c6.916 0 12.522 5.606 12.522 12.522v4.22c0 6.916-5.607 12.522-12.522 12.522z" class="color734727 svgShape"/><path fill="#adc9b1" d="M748.858 200.612c0 4.037-1.634 7.701-4.289 10.344a14.553 14.553 0 0 1-10.344 4.289h-87.79c-6.079 0-11.305-3.713-13.504-9.011 9.215.685 17.661 1.129 25.41 1.37 34.253 1.045 54.81-1.922 67.004-6.343 10.681-3.869 14.958-8.843 16.388-13.204 4.265 2.559 7.125 7.22 7.125 12.555zM777.234 536.438v2.739c-.192 2.066-.829 4.385-2.054 6.992a9.297 9.297 0 0 0-.877 4.085H606.365a9.17 9.17 0 0 0-.793-3.869c97.245-4.734 136.808-14.814 152.199-23.572h4.121c.517.264 1.057.48 1.622.636 3.928 1.095 12.867 4.507 13.72 12.989z" class="colorC9B3AD svgShape"/></svg>