<svg version="1.1" id="Layer_1" xmlns="http://www.w3.org/2000/svg" xmlns:xlink="http://www.w3.org/1999/xlink" x="0px" y="0px" viewBox="0 0 500 500" style="width: 144px;" xml:space="preserve" data-imageid="road-trip-37" imageName="Road Trip" class="illustrations_image">
<style type="text/css">
	.st0_road-trip-37{fill:#231F20;}
	.st1_road-trip-37{fill:#FFFFFF;}
	.st2_road-trip-37{fill:#D1D3D4;}
	.st3_road-trip-37{fill:#68E1FD;}
</style>
<g id="luggages_road-trip-37">
	<rect x="231.3" y="98.8" class="st0_road-trip-37" width="96.5" height="80.3"/>
	<path class="st0_road-trip-37" d="M327.8,98.8v80.3h-96.5V98.8H327.8 M327.8,97.4h-96.5c-0.8,0-1.4,0.6-1.4,1.4v80.3c0,0.8,0.6,1.4,1.4,1.4h96.5&#10;&#9;&#9;c0.8,0,1.4-0.6,1.4-1.4V98.8C329.2,98.1,328.6,97.4,327.8,97.4z"/>
	<path class="st1_road-trip-37" d="M247,179.9c-0.4,0-0.7-0.3-0.7-0.7V98.8c0-0.4,0.3-0.7,0.7-0.7c0.4,0,0.7,0.3,0.7,0.7c0,0,0,0,0,0v80.3&#10;&#9;&#9;C247.7,179.6,247.4,179.9,247,179.9z"/>
	<path class="st1_road-trip-37" d="M256.8,179.9c-0.4,0-0.7-0.3-0.7-0.7c0,0,0,0,0,0V98.8c0-0.4,0.3-0.7,0.7-0.7c0.4,0,0.7,0.3,0.7,0.7&#10;&#9;&#9;c0,0,0,0,0,0v80.3C257.5,179.6,257.2,179.9,256.8,179.9z"/>
	<path class="st1_road-trip-37" d="M302.3,179.9c-0.4,0-0.7-0.3-0.7-0.7c0,0,0,0,0,0V98.8c0-0.4,0.3-0.7,0.7-0.7c0.4,0,0.7,0.3,0.7,0.7&#10;&#9;&#9;c0,0,0,0,0,0v80.3C303,179.6,302.7,179.9,302.3,179.9z"/>
	<path class="st1_road-trip-37" d="M312.1,179.9c-0.4,0-0.7-0.3-0.7-0.7c0,0,0,0,0,0V98.8c0-0.4,0.3-0.7,0.7-0.7c0.4,0,0.7,0.3,0.7,0.7&#10;&#9;&#9;c0,0,0,0,0,0v80.3C312.8,179.6,312.5,179.9,312.1,179.9z"/>
	<path class="st0_road-trip-37" d="M295.1,99.5H264v-4.2c0-3.4,2.7-6.1,6.1-6.1h19c3.4,0,6.1,2.7,6.1,6.1L295.1,99.5z M265.4,98.1h28.3v-2.8&#10;&#9;&#9;c0-2.6-2.1-4.7-4.7-4.7h-19c-2.6,0-4.7,2.1-4.7,4.7L265.4,98.1z"/>
	<rect x="172.2" y="110.3" class="st1_road-trip-37" width="66.2" height="69"/>
	<path class="st0_road-trip-37" d="M239.1,180h-67.7v-70.3h67.7V180z M172.9,178.6h64.9v-67.6h-64.9V178.6z"/>
	<path class="st0_road-trip-37" d="M217.8,111.1h-25.1v-3.9c0-1.8,1.4-3.2,3.2-3.2c0,0,0,0,0,0h18.7c1.8,0,3.2,1.4,3.2,3.2L217.8,111.1z&#10;&#9;&#9; M194.2,109.7h22.3v-2.5c0-1-0.8-1.8-1.8-1.8H196c-1,0-1.8,0.8-1.8,1.8L194.2,109.7z"/>
	<polygon class="st1_road-trip-37" points="172.2,116.9 178.3,110.3 172.2,110.3 &#9;"/>
	<path class="st0_road-trip-37" d="M171.5,118.6v-9h8.4L171.5,118.6z M172.9,111.1v4l3.8-4H172.9z"/>
	<polygon class="st1_road-trip-37" points="172.2,172.8 178.3,179.3 172.2,179.3 &#9;"/>
	<path class="st0_road-trip-37" d="M179.9,180h-8.4v-9L179.9,180z M172.9,178.6h3.8l-3.8-4V178.6z"/>
	<polygon class="st1_road-trip-37" points="238.4,116.9 232.4,110.3 238.4,110.3 &#9;"/>
	<path class="st0_road-trip-37" d="M239.1,118.6l-8.4-9h8.4V118.6z M234,111.1l3.8,4v-4H234z"/>
	<path class="st0_road-trip-37" d="M337.5,160.4H333v-20.6h4.6c2.6,0,4.6,2.1,4.6,4.6v11.4C342.2,158.3,340.2,160.4,337.5,160.4&#10;&#9;&#9;C337.6,160.4,337.6,160.4,337.5,160.4z M334.3,159h3.2c1.8,0,3.2-1.4,3.2-3.2l0,0v-11.4c0-1.8-1.4-3.2-3.2-3.2h-3.2V159z"/>
	<rect x="252.1" y="119.2" class="st1_road-trip-37" width="81.5" height="59.5"/>
	<path class="st0_road-trip-37" d="M333.6,119.2v59.5h-81.5v-59.5H333.6 M335,117.8h-84.3v62.3H335V117.8z"/>
	<path class="st2_road-trip-37" d="M332.2,131.7v1.9h-78.7v-1.9H332.2 M333.6,130.3h-81.5v4.7h81.5V130.3L333.6,130.3z"/>
	<path class="st2_road-trip-37" d="M332.2,164.4v1.9h-78.7v-1.9H332.2 M333.6,163h-81.5v4.7h81.5V163L333.6,163z"/>
	<rect x="186.7" y="150.1" class="st1_road-trip-37" width="80.8" height="29"/>
	<path class="st0_road-trip-37" d="M268.2,179.9H186v-30.4h82.2L268.2,179.9z M187.4,178.5h79.4v-27.6h-79.4L187.4,178.5z"/>
	<rect x="186.7" y="162.9" class="st0_road-trip-37" width="80.8" height="1.4"/>
	<path class="st1_road-trip-37" d="M213.4,167.6h26c0.7,0,1.3,0.6,1.3,1.3v0c0,0.7-0.6,1.3-1.3,1.3h-26c-0.7,0-1.3-0.6-1.3-1.3v0&#10;&#9;&#9;C212.1,168.2,212.7,167.6,213.4,167.6z"/>
	<path class="st0_road-trip-37" d="M239.4,171h-26c-1.1,0-2-0.9-2-2s0.9-2,2-2h26c1.1,0,2,0.9,2,2S240.5,171,239.4,171z M213.4,168.4&#10;&#9;&#9;c-0.3,0-0.6,0.3-0.6,0.6c0,0.3,0.3,0.6,0.6,0.6l0,0h26c0.3,0,0.6-0.3,0.6-0.6c0-0.3-0.3-0.6-0.6-0.6H213.4z"/>
	<rect x="213.4" y="163.6" class="st0_road-trip-37" width="1.4" height="4"/>
	<rect x="237.7" y="163.6" class="st0_road-trip-37" width="1.4" height="4"/>
	<path class="st2_road-trip-37" d="M193.5,139.3c-5,0-9-4-9-9s4-9,9-9s9,4,9,9S198.4,139.3,193.5,139.3z M193.5,122.7c-4.2,0-7.6,3.4-7.6,7.6&#10;&#9;&#9;c0,4.2,3.4,7.6,7.6,7.6c4.2,0,7.6-3.4,7.6-7.6l0,0C201,126.1,197.6,122.7,193.5,122.7z"/>
	<path class="st2_road-trip-37" d="M227.5,143.2h-15.8c-0.4,0-0.7-0.3-0.7-0.7v-9.9c0-0.4,0.3-0.7,0.7-0.7h15.8c0.4,0,0.7,0.3,0.7,0.7v9.9&#10;&#9;&#9;C228.2,142.9,227.9,143.2,227.5,143.2z M212.4,141.8h14.4v-8.5h-14.4V141.8z"/>
	<path class="st2_road-trip-37" d="M294.4,153.1c-0.3,0-0.6-0.2-0.7-0.5l-2.3-7.2c-0.1-0.4,0.1-0.8,0.5-0.9l15.3-4.8c0.2-0.1,0.4-0.1,0.5,0&#10;&#9;&#9;c0.2,0.1,0.3,0.2,0.4,0.4l2.3,7.2c0.1,0.4-0.1,0.8-0.5,0.9l-15.3,4.8C294.5,153,294.5,153.1,294.4,153.1z M293,145.6l1.9,5.9&#10;&#9;&#9;l14-4.4l-1.9-5.9L293,145.6z"/>
	<path class="st2_road-trip-37" d="M327.9,159.3h-12.2c-0.3,0-0.5-0.2-0.6-0.4c-0.1-0.3,0-0.6,0.2-0.8l12.2-12.2c0.3-0.3,0.7-0.3,1,0&#10;&#9;&#9;c0.1,0.1,0.2,0.3,0.2,0.5v12.2C328.6,158.9,328.3,159.3,327.9,159.3L327.9,159.3z M317.4,157.9h9.8V148L317.4,157.9z"/>
	<path class="st2_road-trip-37" d="M277.2,152.8c-4.1,0-7.4-3.3-7.4-7.5s3.3-7.4,7.5-7.4c4.1,0,7.4,3.3,7.4,7.4&#10;&#9;&#9;C284.7,149.5,281.4,152.8,277.2,152.8z M277.2,139.3c-3.3,0-6.1,2.7-6.1,6s2.7,6.1,6,6.1c3.3,0,6.1-2.7,6.1-6c0,0,0,0,0,0&#10;&#9;&#9;C283.3,142,280.6,139.3,277.2,139.3z"/>
	<path class="st2_road-trip-37" d="M217.1,122.7h-8c-0.4,0-0.7-0.3-0.7-0.7v-2.8c0-0.4,0.3-0.7,0.7-0.7h8c0.4,0,0.7,0.3,0.7,0.7v2.8&#10;&#9;&#9;C217.9,122.4,217.6,122.7,217.1,122.7C217.2,122.7,217.2,122.7,217.1,122.7z M209.8,121.3h6.6v-1.4h-6.6V121.3z"/>
</g>
<g id="road_road-trip-37">
	<path class="st2_road-trip-37" d="M461.2,303H38.8c-0.4,0-0.7-0.3-0.7-0.7c0-0.4,0.3-0.7,0.7-0.7h422.5c0.4,0,0.7,0.3,0.7,0.7&#10;&#9;&#9;S461.6,303,461.2,303C461.3,303,461.3,303,461.2,303z"/>
	<path class="st2_road-trip-37" d="M30.3,398.4c-0.2,0-0.4-0.1-0.5-0.2c-0.3-0.3-0.3-0.7,0-1c0,0,0,0,0,0l98.5-95.4c0.3-0.3,0.7-0.3,1,0&#10;&#9;&#9;c0,0,0,0,0,0c0.3,0.3,0.3,0.7,0,1l-98.6,95.4C30.7,398.3,30.5,398.4,30.3,398.4z"/>
	<path class="st2_road-trip-37" d="M469.7,398.4c-0.2,0-0.4-0.1-0.5-0.2l-98.5-95.4c-0.3-0.3-0.3-0.7,0-1c0.3-0.3,0.7-0.3,1,0c0,0,0,0,0,0&#10;&#9;&#9;l98.5,95.4c0.3,0.3,0.3,0.7,0,1c0,0,0,0,0,0C470.1,398.3,469.9,398.4,469.7,398.4z"/>
	<path class="st2_road-trip-37" d="M275.3,410.8h-48.8c-0.2,0-0.4-0.1-0.5-0.2c-0.1-0.2-0.2-0.4-0.1-0.6l7.8-40.7c0.1-0.3,0.3-0.6,0.7-0.6h33.3&#10;&#9;&#9;c0.3,0,0.6,0.2,0.7,0.6l7.8,40.7c0.1,0.4-0.1,0.7-0.5,0.8C275.4,410.8,275.4,410.8,275.3,410.8L275.3,410.8z M227.3,409.4h47.1&#10;&#9;&#9;L267,370h-32.2L227.3,409.4z"/>
	<path class="st2_road-trip-37" d="M267.5,355.6h-33.3c-0.4,0-0.7-0.3-0.7-0.7c0,0,0-0.1,0-0.1l5.3-27.8c0.1-0.3,0.3-0.6,0.7-0.6h22.7&#10;&#9;&#9;c0.3,0,0.6,0.2,0.7,0.6l5.3,27.8c0,0.2,0,0.4-0.1,0.6C268,355.6,267.8,355.7,267.5,355.6z M235.1,354.2h31.6l-5-26.4h-21.6&#10;&#9;&#9;L235.1,354.2z"/>
</g>
<g id="van_road-trip-37">
	<path class="st0_road-trip-37" d="M144.7,238h-14.1c-2.3,0-4.3-1.7-4.6-4l-0.9-6.3c-0.4-2.6,1.4-4.9,3.9-5.3c0.2,0,0.5-0.1,0.7-0.1h14.2&#10;&#9;&#9;c2.5,0,4.6,1.8,5,4.3l0.8,5.5c0.4,2.8-1.5,5.3-4.2,5.8C145.2,238,144.9,238,144.7,238z"/>
	<path class="st0_road-trip-37" d="M144.7,238.7h-14.1c-2.7,0-4.9-1.9-5.3-4.6l-0.9-6.3c-0.4-2.9,1.6-5.7,4.5-6.1c0.3,0,0.5-0.1,0.8-0.1h14.2&#10;&#9;&#9;c2.9,0,5.3,2.1,5.7,4.9l0.8,5.5c0.5,3.1-1.7,6.1-4.8,6.6C145.2,238.7,145,238.7,144.7,238.7L144.7,238.7z M129.6,223.1&#10;&#9;&#9;c-2.2,0-4,1.8-4,4c0,0.2,0,0.4,0,0.6l0.9,6.3c0.3,1.9,2,3.4,3.9,3.4h14.1c2.4,0,4.4-1.9,4.4-4.4c0-0.2,0-0.4,0-0.6l-0.8-5.5&#10;&#9;&#9;c-0.3-2.1-2.2-3.7-4.3-3.7L129.6,223.1z"/>
	<path class="st1_road-trip-37" d="M145.5,236.5h-11.9c-2,0-3.6-1.4-3.9-3.4l-0.8-5.3c-0.3-2.2,1.2-4.2,3.3-4.5c0.2,0,0.4,0,0.6,0h12&#10;&#9;&#9;c2.1,0,3.9,1.6,4.2,3.7l0.7,4.6c0.3,2.3-1.3,4.5-3.6,4.8C145.9,236.5,145.7,236.5,145.5,236.5z"/>
	<path class="st0_road-trip-37" d="M145.5,237.2h-11.9c-2.3,0-4.2-1.7-4.6-3.9l-0.8-5.3c-0.4-2.5,1.4-4.9,3.9-5.3c0.2,0,0.5-0.1,0.7-0.1h12&#10;&#9;&#9;c2.5,0,4.6,1.8,4.9,4.2l0.7,4.6c0.4,2.7-1.5,5.3-4.3,5.7C145.9,237.2,145.7,237.2,145.5,237.2L145.5,237.2z M132.8,224&#10;&#9;&#9;c-1.8,0-3.2,1.4-3.2,3.2c0,0.2,0,0.3,0,0.5l0.8,5.3c0.2,1.6,1.6,2.7,3.2,2.8h11.9c2,0,3.6-1.6,3.6-3.6c0-0.2,0-0.3,0-0.5l-0.7-4.6&#10;&#9;&#9;c-0.3-1.7-1.8-3-3.5-3L132.8,224z"/>
	<path class="st0_road-trip-37" d="M355.3,238h14.1c2.3,0,4.3-1.7,4.6-4l0.9-6.3c0.4-2.6-1.4-4.9-3.9-5.3c-0.2,0-0.5-0.1-0.7-0.1h-14.2&#10;&#9;&#9;c-2.5,0-4.6,1.8-5,4.3l-0.8,5.5c-0.4,2.8,1.5,5.3,4.2,5.8C354.8,238,355.1,238,355.3,238z"/>
	<path class="st0_road-trip-37" d="M369.5,238.7h-14.1c-3.2,0-5.8-2.6-5.8-5.8c0-0.3,0-0.6,0.1-0.9l0.8-5.5c0.4-2.8,2.8-4.9,5.7-4.9h14.2&#10;&#9;&#9;c3,0,5.4,2.4,5.4,5.4c0,0.3,0,0.5-0.1,0.8l-0.9,6.3C374.4,236.8,372.1,238.7,369.5,238.7z M356.2,223.1c-2.2,0-4,1.6-4.3,3.7&#10;&#9;&#9;l-0.8,5.5c-0.4,2.4,1.3,4.6,3.7,5c0.2,0,0.4,0,0.6,0h14.1c2,0,3.6-1.4,3.9-3.4l0.9-6.3c0.3-2.2-1.2-4.2-3.4-4.5c-0.2,0-0.4,0-0.6,0&#10;&#9;&#9;L356.2,223.1z"/>
	<path class="st1_road-trip-37" d="M354.5,236.5h11.9c2,0,3.6-1.4,3.9-3.4l0.8-5.3c0.3-2.2-1.2-4.2-3.3-4.5c-0.2,0-0.4,0-0.6,0h-12&#10;&#9;&#9;c-2.1,0-3.9,1.6-4.2,3.7l-0.7,4.6c-0.3,2.3,1.3,4.5,3.6,4.8C354.1,236.5,354.3,236.5,354.5,236.5z"/>
	<path class="st0_road-trip-37" d="M366.4,237.2h-11.9c-2.8,0-5-2.3-5-5c0-0.2,0-0.4,0-0.7l0.7-4.6c0.4-2.4,2.4-4.2,4.9-4.2h12&#10;&#9;&#9;c2.6,0,4.6,2.1,4.6,4.6c0,0.2,0,0.5-0.1,0.7l-0.8,5.3C370.7,235.5,368.7,237.2,366.4,237.2z M355.2,224c-1.8,0-3.3,1.3-3.5,3&#10;&#9;&#9;l-0.7,4.6c-0.3,2,1.1,3.8,3,4.1c0.2,0,0.3,0,0.5,0h11.9c1.6,0,3-1.2,3.2-2.8l0.8-5.3c0.3-1.8-0.9-3.4-2.7-3.7c-0.2,0-0.3,0-0.5,0&#10;&#9;&#9;L355.2,224z"/>
	<path class="st1_road-trip-37" d="M340.7,184.6H159.3c0,0-13.4,35.5-13.4,59h208.2C354.1,220.1,340.7,184.6,340.7,184.6z"/>
	<path class="st0_road-trip-37" d="M354.1,244.4H145.9c-0.4,0-0.7-0.3-0.7-0.7c0-23.4,13.4-58.9,13.5-59.3c0.1-0.3,0.4-0.5,0.6-0.4h181.3&#10;&#9;&#9;c0.3,0,0.6,0.2,0.6,0.4c0.1,0.4,13.5,35.9,13.5,59.3C354.8,244.1,354.5,244.4,354.1,244.4z M146.6,243h206.8&#10;&#9;&#9;c-0.2-21.7-11.7-53.5-13.2-57.6H159.8C158.3,189.5,146.9,221.3,146.6,243z"/>
	<rect x="144.8" y="252.3" class="st1_road-trip-37" width="210.4" height="73.6"/>
	<path class="st0_road-trip-37" d="M355.2,326.5H144.8c-0.4,0-0.7-0.3-0.7-0.7l0,0v-73.5c0-0.4,0.3-0.7,0.7-0.7h210.4c0.4,0,0.7,0.3,0.7,0.7&#10;&#9;&#9;c0,0,0,0,0,0v73.5C355.9,326.2,355.6,326.5,355.2,326.5L355.2,326.5z M145.5,325.1h209V253h-209V325.1z"/>
	<path class="st1_road-trip-37" d="M142.9,325.8h214.2c2.8,0,5.1,2.3,5.1,5.1v5.1c0,2.8-2.3,5.1-5.1,5.1H142.9c-2.8,0-5.1-2.3-5.1-5.1v-5.1&#10;&#9;&#9;C137.8,328.1,140.1,325.8,142.9,325.8z"/>
	<path class="st0_road-trip-37" d="M357.1,341.8H142.9c-3.2,0-5.8-2.6-5.8-5.8v-5.1c0-3.2,2.6-5.8,5.8-5.8h214.2c3.2,0,5.8,2.6,5.8,5.8v5.1&#10;&#9;&#9;C362.9,339.2,360.3,341.8,357.1,341.8z M142.9,326.5c-2.4,0-4.4,2-4.4,4.4v5.1c0,2.4,2,4.4,4.4,4.4h214.2c2.4,0,4.4-2,4.4-4.4v-5.1&#10;&#9;&#9;c0-2.4-2-4.4-4.4-4.4L142.9,326.5z"/>
	<path class="st0_road-trip-37" d="M156.7,341.1h38.7l0,0v30.6c0,2.5-2.1,4.6-4.6,4.6h-29.5c-2.5,0-4.6-2.1-4.6-4.6V341.1L156.7,341.1z"/>
	<path class="st0_road-trip-37" d="M190.8,377h-29.5c-2.9,0-5.3-2.4-5.3-5.3v-30.6c0-0.4,0.3-0.7,0.7-0.7c0,0,0,0,0,0h38.7c0.4,0,0.7,0.3,0.7,0.7&#10;&#9;&#9;l0,0v30.6C196.2,374.6,193.8,377,190.8,377C190.9,377,190.8,377,190.8,377z M157.4,341.8v29.9c0,2.2,1.8,3.9,3.9,3.9h29.5&#10;&#9;&#9;c2.2,0,3.9-1.8,3.9-3.9v-29.9L157.4,341.8z"/>
	<path class="st0_road-trip-37" d="M304.6,341.1h38.7l0,0v30.6c0,2.5-2.1,4.6-4.6,4.6h-29.5c-2.5,0-4.6-2.1-4.6-4.6L304.6,341.1L304.6,341.1z"/>
	<path class="st0_road-trip-37" d="M338.7,377h-29.5c-2.9,0-5.3-2.4-5.3-5.3v-30.6c0-0.4,0.3-0.7,0.7-0.7h0h38.7c0.4,0,0.7,0.3,0.7,0.7v0v30.6&#10;&#9;&#9;C344,374.6,341.6,377,338.7,377C338.7,377,338.7,377,338.7,377z M305.3,341.8v29.9c0,2.2,1.8,3.9,3.9,3.9h29.5&#10;&#9;&#9;c2.2,0,3.9-1.8,3.9-3.9v-29.9L305.3,341.8z"/>
	<path class="st2_road-trip-37" d="M328.5,271h-157c-3.5,0.1-6.9-1.3-9.4-3.8c-1.5-1.5-2.2-3.6-2-5.7l0.2-15.7l6.4-48.3c0.5-4.6,5.4-8,11.3-8h144&#10;&#9;&#9;c6,0,10.9,3.5,11.3,8.1l6.2,46.8l0.3,17.3c0.2,2.1-0.6,4.1-2,5.6C335.4,269.8,332,271.1,328.5,271z M178,190.8&#10;&#9;&#9;c-5.2,0-9.6,3-9.9,6.8l-6.4,48.3l-0.2,15.7c-0.2,1.7,0.4,3.4,1.6,4.7c2.2,2.2,5.2,3.4,8.3,3.3h157c3.1,0.1,6.1-1.1,8.3-3.3&#10;&#9;&#9;c1.2-1.2,1.8-2.9,1.6-4.6l-0.4-17.3l-6.2-46.7c-0.4-3.8-4.8-6.8-10-6.8H178z"/>
	<path class="st3_road-trip-37 targetColor" d="M322.3,237.4H177.7c-3.3,0-5.9-2.2-5.5-4.8l4.3-30.4c0.3-2.2,2.7-3.9,5.5-3.9h136c2.8,0,5.2,1.7,5.5,3.9&#10;&#9;&#9;l4.3,30.4C328.2,235.2,325.6,237.4,322.3,237.4z" style="fill: rgb(104, 225, 253);"/>
	<rect x="223.1" y="286.3" class="st0_road-trip-37" width="53.8" height="20.6"/>
	<path class="st0_road-trip-37" d="M276.9,307.6h-53.8c-0.4,0-0.7-0.3-0.7-0.7l0,0v-20.6c0-0.4,0.3-0.7,0.7-0.7c0,0,0,0,0,0h53.8&#10;&#9;&#9;c0.4,0,0.7,0.3,0.7,0.7v0v20.6C277.6,307.3,277.3,307.6,276.9,307.6L276.9,307.6z M223.8,306.2h52.4V287h-52.4L223.8,306.2z"/>
	<path class="st2_road-trip-37" d="M250,265.3c-2,0-3.5-1.6-3.5-3.5V260c0-2,1.6-3.5,3.5-3.5c2,0,3.5,1.6,3.5,3.5v1.8&#10;&#9;&#9;C253.6,263.7,252,265.3,250,265.3C250,265.3,250,265.3,250,265.3z M250,257.9c-1.2,0-2.1,1-2.1,2.1l0,0v1.8c0,1.2,1,2.1,2.1,2.1&#10;&#9;&#9;c1.2,0,2.1-1,2.1-2.1V260C252.1,258.8,251.2,257.9,250,257.9z"/>
	<path class="st1_road-trip-37" d="M212,324.2L212,324.2c1.6,0,2.9,1.3,2.9,2.9v13.3c0,1.6-1.3,2.9-2.9,2.9h0c-1.6,0-2.9-1.3-2.9-2.9v-13.3&#10;&#9;&#9;C209.1,325.6,210.4,324.2,212,324.2z"/>
	<path class="st0_road-trip-37" d="M212,344.1c-2,0-3.6-1.6-3.6-3.6v-13.3c0-2,1.6-3.6,3.6-3.6c2,0,3.6,1.6,3.6,3.6v13.3&#10;&#9;&#9;C215.6,342.5,214,344.1,212,344.1z M212,325c-1.2,0-2.2,1-2.2,2.2l0,0v13.3c0,1.2,1,2.2,2.2,2.2c1.2,0,2.2-1,2.2-2.2v-13.3&#10;&#9;&#9;C214.2,326,213.2,325,212,325L212,325z"/>
	<path class="st1_road-trip-37" d="M295.5,324.2L295.5,324.2c1.6,0,2.9,1.3,2.9,2.9v13.3c0,1.6-1.3,2.9-2.9,2.9h0c-1.6,0-2.9-1.3-2.9-2.9v-13.3&#10;&#9;&#9;C292.6,325.6,293.9,324.2,295.5,324.2z"/>
	<path class="st0_road-trip-37" d="M295.5,344.1c-2,0-3.6-1.6-3.6-3.6v-13.3c0.1-2,1.8-3.5,3.8-3.4c1.9,0.1,3.3,1.6,3.4,3.4v13.3&#10;&#9;&#9;C299.2,342.5,297.6,344.1,295.5,344.1z M295.5,324.9c-1.2,0-2.2,1-2.2,2.2c0,0,0,0,0,0v13.3c0.1,1.2,1.2,2.2,2.4,2.1&#10;&#9;&#9;c1.1-0.1,2-1,2.1-2.1v-13.3C297.8,326,296.8,325,295.5,324.9L295.5,324.9z"/>
	<path class="st1_road-trip-37" d="M158.9,179.2h182.2c1.5,0,2.7,1.2,2.7,2.7l0,0c0,1.5-1.2,2.7-2.7,2.7H158.9c-1.5,0-2.7-1.2-2.7-2.7l0,0&#10;&#9;&#9;C156.2,180.4,157.4,179.2,158.9,179.2z"/>
	<path class="st0_road-trip-37" d="M341.1,185.4H158.9c-1.9,0-3.4-1.5-3.4-3.4s1.5-3.4,3.4-3.4h182.2c1.9,0,3.4,1.5,3.4,3.4&#10;&#9;&#9;S343,185.4,341.1,185.4z M158.9,179.9c-1.1,0-2,0.9-2,2c0,1.1,0.9,2,2,2h182.2c1.1,0,2-0.9,2-2c0-1.1-0.9-2-2-2H158.9z"/>
	<path class="st1_road-trip-37" d="M144,243.7h212c2.4,0,4.4,1.9,4.4,4.4v0c0,2.4-1.9,4.4-4.4,4.4H144c-2.4,0-4.4-1.9-4.4-4.4v0&#10;&#9;&#9;C139.7,245.6,141.6,243.7,144,243.7z"/>
	<path class="st0_road-trip-37" d="M356,253.1H144c-2.8,0-5.1-2.3-5.1-5.1s2.3-5.1,5.1-5.1h212c2.8,0,5,2.3,5,5.1S358.8,253.1,356,253.1z&#10;&#9;&#9; M144,244.4c-2,0-3.6,1.6-3.6,3.7c0,2,1.6,3.6,3.6,3.6h212c2,0,3.6-1.6,3.6-3.6c0-2-1.6-3.7-3.6-3.7H144z"/>
	<path class="st2_road-trip-37" d="M322.8,316.3H177.2c-0.4,0-0.7-0.3-0.7-0.7c0-0.4,0.3-0.7,0.7-0.7c0,0,0,0,0,0h145.7c0.4,0,0.7,0.3,0.7,0.7&#10;&#9;&#9;C323.5,316,323.2,316.3,322.8,316.3z"/>
	<path class="st1_road-trip-37" d="M222.7,226.3c-0.4,0-0.6-0.3-0.6-0.6c0-0.2,0.1-0.4,0.2-0.5l23.2-18.5c0.3-0.2,0.7-0.2,0.9,0.1c0,0,0,0,0,0&#10;&#9;&#9;c0.2,0.3,0.2,0.7-0.1,0.9c0,0,0,0,0,0l-23.2,18.5C222.9,226.3,222.8,226.3,222.7,226.3z"/>
	<path class="st1_road-trip-37" d="M282.2,232.6c-0.2,0-0.4-0.1-0.5-0.2c-0.2-0.2-0.3-0.6,0-0.9c0,0,0,0,0,0l26.7-24.8c0.3-0.2,0.7-0.2,0.9,0.1&#10;&#9;&#9;c0.2,0.2,0.2,0.6,0,0.8l-26.7,24.8C282.5,232.6,282.3,232.6,282.2,232.6z"/>
	<path class="st1_road-trip-37" d="M155.4,275h11.8c2.1,0,3.8,1.7,3.8,3.8V314c0,2.1-1.7,3.8-3.8,3.8h-11.8c-2.1,0-3.8-1.7-3.8-3.8v-35.2&#10;&#9;&#9;C151.6,276.7,153.3,275,155.4,275z"/>
	<path class="st0_road-trip-37" d="M167.2,275c2.1,0,3.8,1.7,3.8,3.8l0,0V314c0,2.1-1.7,3.8-3.8,3.8l0,0h-11.8c-2.1,0-3.8-1.7-3.8-3.7&#10;&#9;&#9;c0,0,0,0,0,0v-35.3c0-2.1,1.7-3.8,3.8-3.8c0,0,0,0,0,0L167.2,275 M167.2,273.6h-11.8c-2.9,0-5.2,2.3-5.2,5.2V314&#10;&#9;&#9;c0,2.9,2.3,5.2,5.2,5.2h11.8c2.8,0,5.2-2.3,5.2-5.2v-35.3C172.4,275.9,170.1,273.6,167.2,273.6z"/>
	<path class="st3_road-trip-37 targetColor" d="M168.3,299.4V281c0-1.8-1.5-3.3-3.3-3.3h0h-7.4c-1.8,0-3.3,1.5-3.3,3.3l0,0v18.4H168.3z" style="fill: rgb(104, 225, 253);"/>
	<path class="st3_road-trip-37 targetColor" d="M154.2,302.3v9c0,1.8,1.5,3.3,3.3,3.3h0h7.4c1.8,0,3.3-1.5,3.3-3.3l0,0v-9H154.2z" style="fill: rgb(104, 225, 253);"/>
	<path class="st1_road-trip-37" d="M332.8,275h11.8c2.1,0,3.8,1.7,3.8,3.8V314c0,2.1-1.7,3.8-3.8,3.8h-11.8c-2.1,0-3.8-1.7-3.8-3.8v-35.2&#10;&#9;&#9;C329,276.7,330.7,275,332.8,275z"/>
	<path class="st0_road-trip-37" d="M344.6,275c2.1,0,3.8,1.7,3.8,3.8c0,0,0,0,0,0V314c0,2.1-1.7,3.8-3.8,3.8c0,0,0,0,0,0h-11.8&#10;&#9;&#9;c-2.1,0-3.8-1.7-3.8-3.7c0,0,0,0,0,0v-35.3c0-2.1,1.7-3.8,3.8-3.8c0,0,0,0,0,0L344.6,275 M344.6,273.6h-11.8&#10;&#9;&#9;c-2.8,0-5.2,2.3-5.2,5.2V314c0,2.8,2.3,5.2,5.2,5.2h11.8c2.9,0,5.2-2.3,5.2-5.2v-35.3C349.8,275.9,347.5,273.6,344.6,273.6&#10;&#9;&#9;L344.6,273.6z"/>
	<path class="st3_road-trip-37 targetColor" d="M345.8,299.4V281c0-1.8-1.5-3.3-3.3-3.3l0,0H335c-1.8,0-3.3,1.5-3.3,3.3l0,0v18.4H345.8z" style="fill: rgb(104, 225, 253);"/>
	<path class="st3_road-trip-37 targetColor" d="M331.7,302.3v9c0,1.8,1.5,3.3,3.3,3.3l0,0h7.5c1.8,0,3.3-1.5,3.3-3.3l0,0v-9H331.7z" style="fill: rgb(104, 225, 253);"/>
</g>
</svg>